<svg width="48" height="48" viewBox="0 0 48 48" fill="none" xmlns="http://www.w3.org/2000/svg">
<path fill-rule="evenodd" clip-rule="evenodd" d="M30.2359 0H42.9259C45.696 0.0025223 47.9409 2.24746 47.9434 5.0175V17.7075C47.9403 20.4761 45.6945 22.7185 42.9259 22.7175H34.9984L29.0584 28.665C28.6377 29.0883 28.0653 29.3259 27.4684 29.325C27.1723 29.3258 26.879 29.2671 26.6059 29.1525C25.7643 28.8062 25.2159 27.9851 25.2184 27.075V5.0175C25.221 2.24746 27.4659 0.0025223 30.2359 0ZM44.6164 19.3958C45.0651 18.9484 45.3177 18.3411 45.3184 17.7075V5.0175C45.3175 3.69655 44.2469 2.62595 42.9259 2.625H30.2359C28.915 2.62595 27.8444 3.69655 27.8434 5.0175V26.1675L33.9109 20.0925H42.9259C43.5596 20.0937 44.1677 19.8431 44.6164 19.3958ZM15.6934 31.455C19.9444 31.4529 23.3891 28.0059 23.3884 23.755C23.3878 19.5041 19.9419 16.0582 15.6909 16.0575C11.44 16.0568 7.99302 19.5016 7.99094 23.7525C7.99463 28.0049 11.441 31.4513 15.6934 31.455ZM15.6934 18.6825C18.4956 18.6846 20.7655 20.9578 20.7634 23.76C20.7614 26.5622 18.4881 28.8321 15.6859 28.83C12.8838 28.8279 10.6139 26.5547 10.6159 23.7525C10.6213 20.9517 12.8927 18.6837 15.6934 18.6825ZM0.00464499 46.5722C0.752974 38.464 7.54998 32.2578 15.6927 32.2478C23.8355 32.2577 30.6326 38.4639 31.3808 46.5722C31.4118 46.9397 31.2873 47.3032 31.0377 47.5746C30.788 47.846 30.4361 48.0003 30.0673 48C29.3881 47.998 28.823 47.4773 28.7656 46.8004C28.1453 40.0436 22.478 34.8728 15.6927 34.8728C8.9074 34.8728 3.24014 40.0436 2.61982 46.8004C2.56244 47.4773 1.99735 47.998 1.31812 48C0.949404 48.0002 0.59747 47.8459 0.347836 47.5746C0.0982025 47.3032 -0.0262773 46.9396 0.00464499 46.5722ZM34.6384 9.6225H38.5234C40.2424 9.6225 41.6359 11.016 41.6359 12.735C41.6359 14.454 40.2424 15.8475 38.5234 15.8475H37.8934V16.74C37.8934 17.3613 37.3898 17.865 36.7684 17.865C36.1471 17.865 35.6434 17.3613 35.6434 16.74V15.8475H33.4084C32.7871 15.8475 32.2834 15.3438 32.2834 14.7225C32.2834 14.1012 32.7871 13.5975 33.4084 13.5975H38.5234C38.9998 13.5975 39.3859 13.2113 39.3859 12.735C39.3859 12.2587 38.9998 11.8725 38.5234 11.8725H34.6384C32.9174 11.8725 31.5222 10.4773 31.5222 8.75625C31.5222 7.03519 32.9174 5.64 34.6384 5.64H35.6434V4.5975C35.6434 3.97618 36.1471 3.4725 36.7684 3.4725C37.3898 3.4725 37.8934 3.97618 37.8934 4.5975V5.64H39.7534C40.3748 5.64 40.8784 6.14368 40.8784 6.765C40.8784 7.38632 40.3748 7.89 39.7534 7.89H34.6384C34.16 7.89 33.7722 8.27783 33.7722 8.75625C33.7722 9.23467 34.16 9.6225 34.6384 9.6225Z" fill="#71C9D9"/>
</svg>
