<svg width="161" height="145" viewBox="0 0 161 145" fill="none" xmlns="http://www.w3.org/2000/svg">
<path d="M82.0771 84.885L47.2622 85.4992C45.7671 85.5288 44.3701 84.7549 43.5988 83.4696C42.8275 82.1843 42.7995 80.5836 43.5252 79.2719C44.251 77.9602 45.62 77.1375 47.1152 77.1144L81.9302 76.5003C83.011 76.4813 83.9026 77.3449 83.9216 78.4292L83.9997 82.8872C84.0178 83.9206 83.2344 84.7911 82.2079 84.8783C82.1645 84.882 82.1209 84.8842 82.0771 84.885Z" fill="#71C9D9"/>
<path d="M75.1194 86.1765L46.3647 87.4979C45.8427 87.522 45.3325 87.3362 44.9465 86.9816C44.5605 86.627 44.3302 86.1325 44.3064 85.6069L44.0021 78.8957C43.9525 77.8013 44.7935 76.8736 45.8807 76.8235L74.6354 75.5021C75.1574 75.478 75.6676 75.6638 76.0536 76.0184C76.4396 76.373 76.6699 76.8675 76.6937 77.3931L76.998 84.1043C77.0451 85.1692 76.2488 86.0816 75.1938 86.1717C75.1692 86.1738 75.1443 86.1754 75.1194 86.1765Z" fill="#2F2E41"/>
<path d="M27 142.541V105.459C27.0012 104.378 27.8392 103.501 28.8732 103.5H33.1268C34.1608 103.501 34.9988 104.378 35 105.459V142.541C34.9988 143.622 34.1608 144.499 33.1268 144.5H28.8732C27.8392 144.499 27.0012 143.622 27 142.541H27Z" fill="#71C9D9"/>
<path d="M39 142.541V105.459C39.0012 104.378 39.8392 103.501 40.8732 103.5H45.1268C46.1608 103.501 46.9988 104.378 47 105.459V142.541C46.9988 143.622 46.1608 144.499 45.1268 144.5H40.8732C39.8392 144.499 39.0012 143.622 39 142.541Z" fill="#71C9D9"/>
<circle cx="39.5" cy="50" r="15.5" fill="#71C9D9"/>
<path d="M47.8832 55.1254C48.3923 54.9693 48.8596 54.7133 49.2538 54.3746C49.7825 53.8851 50.0525 53.2027 49.9915 52.5101C49.958 52.0159 49.6787 51.5648 49.2367 51.2907C48.6708 50.952 47.9139 50.951 47.1432 51.2679L47.1724 45.5028L46.5519 45.5L46.5175 52.2775L46.9957 51.9968C47.5502 51.6719 48.342 51.4432 48.9016 51.7782C49.1819 51.9576 49.3564 52.2487 49.3737 52.5655C49.416 53.0813 49.2158 53.5887 48.8252 53.9557C48.1399 54.5665 47.1401 54.7575 46 54.9283L46.0984 55.5C46.7041 55.4251 47.3015 55.2997 47.8832 55.1254Z" fill="#2F2E41"/>
<path d="M50.4321 44.9989L53.6685 44.5738L53.7479 45.1713L50.5115 45.5963L50.4321 44.9989Z" fill="#2F2E41"/>
<path d="M40.2163 46.3401L43.4527 45.9151L43.532 46.5126L40.2956 46.9376L40.2163 46.3401Z" fill="#2F2E41"/>
<path d="M6.93342 48.2284L29.0511 75.5725C30.0004 76.745 30.2589 78.3407 29.7293 79.7584C29.1996 81.176 27.9623 82.2 26.4837 82.4444C25.0051 82.6888 23.51 82.1165 22.5617 80.9432L0.44389 53.5992C0.114114 53.1916 -0.042055 52.6681 0.00974349 52.144C0.061542 51.6199 0.317064 51.1381 0.720089 50.8046L4.17052 47.9489C5.0098 47.2544 6.24673 47.3796 6.93341 48.2284L6.93342 48.2284Z" fill="#71C9D9"/>
<path d="M14.3818 54.2213L32.5558 76.4575C32.8858 76.8612 33.0421 77.3796 32.9902 77.8986C32.9384 78.4176 32.6827 78.8948 32.2794 79.2251L26.382 84.0554C25.9787 84.3857 25.4609 84.5421 24.9424 84.4902C24.4239 84.4383 23.9472 84.1823 23.6173 83.7786L5.44326 61.5426C4.75745 60.7016 4.88109 59.4635 5.71964 58.775L11.6172 53.9446C12.457 53.2568 13.6947 53.3807 14.3818 54.2214L14.3818 54.2213Z" fill="#2F2E41"/>
<path fill-rule="evenodd" clip-rule="evenodd" d="M138.113 25.5C139.278 25.5083 140.327 26.2089 140.779 27.2815H140.781C140.927 27.6298 141.001 28.0037 141 28.3811V95.6189C140.998 97.2092 139.707 98.4979 138.115 98.5H84.8853C83.2922 98.4991 82.0009 97.2097 82 95.6189V28.3811C82.0009 26.7903 83.2922 25.5009 84.8853 25.5H138.113ZM138.113 97.8602C139.352 97.8587 140.356 96.8561 140.357 95.6189L140.359 28.3815C140.359 28.1861 140.333 27.9916 140.282 27.8029C140.259 27.7172 140.231 27.6328 140.198 27.5501C139.855 26.701 139.032 26.1437 138.115 26.1402H84.8853C83.6464 26.1419 82.6424 27.1443 82.6408 28.3815V95.6193C82.6412 96.8569 83.6459 97.86 84.8853 97.8602H138.113Z" fill="#3F3D56"/>
<path d="M129.688 41.5H113.312C112.844 41.5008 112.41 41.2151 112.176 40.7507C111.941 40.2862 111.941 39.7138 112.176 39.2493C112.41 38.7849 112.844 38.4992 113.312 38.5H129.688C130.156 38.4992 130.59 38.7849 130.824 39.2493C131.059 39.7138 131.059 40.2862 130.824 40.7507C130.59 41.2151 130.156 41.5008 129.688 41.5Z" fill="#3F3D56"/>
<path d="M129.688 48.5H113.312C112.844 48.5008 112.41 48.2151 112.176 47.7507C111.941 47.2862 111.941 46.7138 112.176 46.2493C112.41 45.7849 112.844 45.4992 113.312 45.5H129.688C130.156 45.4992 130.59 45.7849 130.824 46.2493C131.059 46.7138 131.059 47.2862 130.824 47.7507C130.59 48.2151 130.156 48.5008 129.688 48.5Z" fill="#3F3D56"/>
<path d="M105.518 52.5H93.4823C92.664 52.4991 92.0009 51.8425 92 51.0321V36.9679C92.0009 36.1575 92.664 35.5009 93.4823 35.5H105.518C106.336 35.5009 106.999 36.1575 107 36.9679V51.0321C106.999 51.8425 106.336 52.4991 105.518 52.5Z" fill="#71C9D9"/>
<path d="M129.711 62.5H93.2893C92.5772 62.5 92 61.8284 92 61C92 60.1716 92.5772 59.5 93.2893 59.5H129.711C130.423 59.5 131 60.1716 131 61C131 61.8284 130.423 62.5 129.711 62.5Z" fill="#CCCCCC"/>
<path d="M129.709 69.5H93.2873C92.576 69.4987 92 68.8275 92 68C92 67.1725 92.576 66.5013 93.2873 66.5H129.709C130.17 66.4992 130.596 66.7849 130.827 67.2493C131.058 67.7138 131.058 68.2862 130.827 68.7507C130.596 69.2151 130.17 69.5008 129.709 69.5Z" fill="#CCCCCC"/>
<path d="M129.709 75.5H93.2873C92.576 75.4987 92 74.8275 92 74C92 73.1725 92.576 72.5013 93.2873 72.5H129.709C130.17 72.4992 130.596 72.7849 130.827 73.2493C131.058 73.7138 131.058 74.2862 130.827 74.7507C130.596 75.2151 130.17 75.5008 129.709 75.5Z" fill="#CCCCCC"/>
<path d="M129.709 82.5H93.2873C92.576 82.4987 92 81.8275 92 81C92 80.1725 92.576 79.5013 93.2873 79.5H129.709C130.17 79.4992 130.596 79.7849 130.827 80.2493C131.058 80.7138 131.058 81.2862 130.827 81.7507C130.596 82.2151 130.17 82.5008 129.709 82.5Z" fill="#CCCCCC"/>
<path d="M129.709 89.5H93.2873C92.576 89.4987 92 88.8275 92 88C92 87.1725 92.576 86.5013 93.2873 86.5H129.709C130.17 86.4992 130.596 86.7849 130.827 87.2493C131.058 87.7138 131.058 88.2862 130.827 88.7507C130.596 89.2151 130.17 89.5008 129.709 89.5Z" fill="#CCCCCC"/>
<circle cx="142.5" cy="19" r="18.5" fill="#71C9D9"/>
<circle cx="142" cy="29.5" r="2" fill="white"/>
<path d="M141.453 7.50017C137.922 7.53352 135.062 10.2382 135.001 13.6004C135 13.6314 135 13.849 135 14.1336C135 15.0027 135.74 15.7072 136.652 15.7073C137.565 15.7071 138.306 15.0019 138.305 14.1322V14.1312C138.305 13.9376 138.305 13.8036 138.305 13.7953C138.305 12.3642 139.371 11.1343 140.847 10.864C142.323 10.5936 143.792 11.359 144.349 12.6881C144.906 14.0172 144.394 15.5359 143.129 16.3078L143.13 16.3085C143.13 16.3085 140.778 17.7504 140.061 19.7283L140.062 19.7284C139.936 20.1336 139.872 20.5541 139.872 20.9767C139.872 21.1504 139.883 22.6704 139.903 23.9041C139.918 24.7898 140.677 25.5002 141.607 25.5C142.059 25.5 142.492 25.329 142.812 25.0247C143.131 24.7204 143.311 24.3077 143.311 23.8773L143.311 23.8674C143.303 22.7375 143.299 21.4219 143.299 21.3264C143.299 20.1119 144.53 18.9018 145.54 18.1127C146.71 17.2104 147.532 15.9639 147.878 14.5687C147.952 14.2811 147.993 13.9866 148 13.6904C148 12.0486 147.315 10.4741 146.096 9.31313C144.877 8.1522 143.224 7.5 141.5 7.5C141.484 7.5 141.469 7.50006 141.453 7.50017Z" fill="white"/>
<path d="M36.2961 42.4038C39.0445 40.6002 42.4986 41.4116 45.5532 41.6472C48.3134 41.8601 51.5849 41.6504 53.5262 39.3993C55.5459 37.0575 55.3771 33.5804 53.705 31.1033C52.0591 28.6652 49.327 27.1256 46.4367 26.7197C43.1987 26.2462 39.9105 27.1526 37.3749 29.2177L38.3572 29.6239C37.7847 24.161 33.761 19.2225 28.3624 17.8829C22.9001 16.5276 16.7916 18.8407 13.8774 23.7023C11.0045 28.4951 11.3448 35.1828 15.4801 39.1657C17.466 41.0784 20.1675 42.0529 22.909 41.5329C25.4374 41.0533 27.6839 39.2135 28.1571 36.6153C28.5957 34.2068 27.6375 31.4711 25.2906 30.4192C23.9894 29.8135 22.4816 29.8375 21.2005 30.4844C20.0373 31.1377 19.2801 32.3301 19.1845 33.659C19.1408 34.2924 19.27 34.9257 19.5585 35.4915C19.8843 36.1554 20.8772 35.5738 20.5522 34.9117C20.1229 33.9159 20.3409 32.7598 21.1036 31.988C21.9567 31.0984 23.3034 30.9506 24.437 31.3143C26.5113 31.9799 27.4272 34.3552 27.0363 36.3703C26.5985 38.6273 24.6681 40.0777 22.4702 40.449C20.08 40.8529 17.7491 39.8454 16.0899 38.1509C12.615 34.6023 12.3143 28.8868 14.6584 24.6515C17.0363 20.355 22.1087 18.0478 26.9402 18.7686C31.7179 19.4812 35.6525 23.2323 36.8785 27.8575C37.0332 28.437 37.1428 29.0275 37.2063 29.6239C37.2143 29.8522 37.3552 30.0548 37.5666 30.1423C37.7781 30.2297 38.0212 30.1858 38.1887 30.03C42.2711 26.6456 49.0612 27.0086 52.4087 31.2663C54.0503 33.3544 54.5341 36.5968 52.6171 38.6943C50.7917 40.6915 47.7604 40.6935 45.2673 40.4748C42.078 40.195 38.572 39.5371 35.7152 41.4118C35.0989 41.8163 35.6748 42.8115 36.2961 42.4038V42.4038Z" fill="#2F2E41"/>
<path d="M48.2391 118.5H24.7609C23.7888 118.499 23.0011 117.735 23 116.793V109.207C23.0011 108.265 23.7888 107.501 24.7609 107.5H48.2391C49.2112 107.501 49.9989 108.265 50 109.207V116.793C49.9989 117.735 49.2112 118.499 48.2391 118.5Z" fill="#2F2E41"/>
<path d="M48.7209 80.4278C48.0037 76.7188 45.2182 73.7816 41.6029 72.5739C42.9085 72.149 43.7386 71.52 43.7386 70.8164C43.7386 69.5371 41.0037 68.5 37.6301 68.5C34.2564 68.5 31.5216 69.5371 31.5216 70.8164C31.5216 71.5303 32.3742 72.1681 33.7129 72.593C28.1702 74.2641 24.1472 79.142 24.1472 84.8862C24.1472 84.8862 22.441 95.9466 21.1014 104.788C20.2444 110.444 24.9271 115.5 31.0213 115.5H52.4539C53.8578 115.5 55 114.429 55 113.113C55 113.113 51.0507 92.4762 48.7209 80.4278Z" fill="#2F2E41"/>
</svg>
