<svg width="11" height="11" viewBox="0 0 11 11" fill="none" xmlns="http://www.w3.org/2000/svg">
<path d="M8.31696 4.4348L5.21361 1.33146C4.91587 1.02319 4.92013 0.533168 5.22319 0.230114C5.52624 -0.0729406 6.01626 -0.0771987 6.32453 0.220543L10.769 4.665C10.9169 4.81202 11 5.01194 11 5.22046C11 5.42898 10.9169 5.62889 10.769 5.77592L6.32453 10.2204C6.12727 10.4246 5.83516 10.5065 5.56048 10.4346C5.28579 10.3627 5.07127 10.1482 4.99937 9.87351C4.92747 9.59883 5.00938 9.30672 5.21361 9.10946L8.31696 6.00612H0.785656C0.35175 6.00612 0 5.65437 0 5.22046C0 4.78655 0.35175 4.4348 0.785656 4.4348H8.31696Z" fill="black"/>
<mask id="mask0" mask-type="alpha" maskUnits="userSpaceOnUse" x="0" y="0" width="11" height="11">
<path d="M8.31696 4.4348L5.21361 1.33146C4.91587 1.02319 4.92013 0.533168 5.22319 0.230114C5.52624 -0.0729406 6.01626 -0.0771987 6.32453 0.220543L10.769 4.665C10.9169 4.81202 11 5.01194 11 5.22046C11 5.42898 10.9169 5.62889 10.769 5.77592L6.32453 10.2204C6.12727 10.4246 5.83516 10.5065 5.56048 10.4346C5.28579 10.3627 5.07127 10.1482 4.99937 9.87351C4.92747 9.59883 5.00938 9.30672 5.21361 9.10946L8.31696 6.00612H0.785656C0.35175 6.00612 0 5.65437 0 5.22046C0 4.78655 0.35175 4.4348 0.785656 4.4348H8.31696Z" fill="white"/>
</mask>
<g mask="url(#mask0)">
<rect width="11" height="11" fill="#FF8080"/>
</g>
</svg>
