<svg width="23" height="10" viewBox="0 0 23 10" fill="none" xmlns="http://www.w3.org/2000/svg">
<path d="M17.2899 9.96212C17.4585 10.0316 17.6138 10.0055 17.7558 9.88399L22.8669 5.27435C22.9556 5.18754 23 5.08337 23 4.96184C23 4.84898 22.9556 4.74915 22.8669 4.66234L17.7558 0.104793C17.6138 -0.00806098 17.4585 -0.0297636 17.2899 0.0396848C17.1213 0.109133 17.037 0.235008 17.037 0.41731V3.33414H0.425926C0.301698 3.33414 0.199653 3.37321 0.119792 3.45134C0.0399306 3.52946 0 3.6293 0 3.75083V6.25097C0 6.37251 0.0399306 6.47234 0.119792 6.55047C0.199653 6.6286 0.301698 6.66766 0.425926 6.66766H17.037V9.58449C17.037 9.75811 17.1213 9.88399 17.2899 9.96212Z" fill="#797676"/>
</svg>
