<svg xmlns="http://www.w3.org/2000/svg" width="16" height="16" viewBox="0 0 16 16">
  <path id="Combined_Shape" data-name="Combined Shape" d="M2,16a2,2,0,0,1-2-2V3.25a2,2,0,0,1,2-2H3.284V.437a.438.438,0,0,1,.876,0V1.25H11.84V.437a.437.437,0,1,1,.875,0V1.25H14a2,2,0,0,1,2,2V14a2,2,0,0,1-2,2ZM.875,14A1.129,1.129,0,0,0,2,15.125H14A1.129,1.129,0,0,0,15.125,14V5.627H.875Zm0-10.751v1.5H15.125V3.25A1.129,1.129,0,0,0,14,2.125H12.715v.852a.437.437,0,1,1-.875,0V2.125H4.16v.852a.438.438,0,0,1-.876,0V2.125H2A1.129,1.129,0,0,0,.875,3.25Zm9.607,8.863a.894.894,0,1,1,.894.894A.894.894,0,0,1,10.481,12.113Zm-3.6,0a.893.893,0,1,1,.893.894A.893.893,0,0,1,6.883,12.113Zm-3.6,0a.894.894,0,1,1,.894.894A.894.894,0,0,1,3.284,12.113Zm7.2-3.587a.894.894,0,1,1,.894.893A.894.894,0,0,1,10.481,8.526Zm-3.6,0a.893.893,0,1,1,.893.893A.893.893,0,0,1,6.883,8.526Zm-3.6,0a.894.894,0,1,1,.894.893A.894.894,0,0,1,3.284,8.526Z" fill="#ff8080"/>
</svg>
