<svg width="16" height="16" viewBox="0 0 16 16" fill="none" xmlns="http://www.w3.org/2000/svg">
<path fill-rule="evenodd" clip-rule="evenodd" d="M14 1.25H12.7156V0.4375C12.7156 0.195875 12.5197 0 12.2781 0C12.0365 0 11.8406 0.195875 11.8406 0.4375V1.25H4.15942V0.4375C4.15942 0.195875 3.96355 0 3.72193 0C3.4803 0 3.28443 0.195875 3.28443 0.4375V1.25H2C0.89543 1.25 0 2.14543 0 3.25V14C0 15.1046 0.89543 16 2 16H14C15.1046 16 16 15.1046 16 14V3.25C16 2.14543 15.1046 1.25 14 1.25ZM15.125 14C15.1243 14.621 14.621 15.1243 14 15.125H2C1.37897 15.1243 0.875703 14.621 0.875 14V5.62695H15.125V14ZM0.875 3.25V4.75195H15.125V3.25C15.1243 2.62897 14.621 2.1257 14 2.125H12.7156V2.97717C12.7156 3.2188 12.5197 3.41467 12.2781 3.41467C12.0365 3.41467 11.8406 3.2188 11.8406 2.97717V2.125H4.15942V2.97717C4.15942 3.2188 3.96355 3.41467 3.72193 3.41467C3.4803 3.41467 3.28443 3.2188 3.28443 2.97717V2.125H2C1.37897 2.1257 0.875703 2.62897 0.875 3.25ZM3.28443 8.52555C3.28443 8.03215 3.68441 7.63217 4.17781 7.63217C4.67121 7.63217 5.0712 8.03215 5.0712 8.52555C5.0712 9.01895 4.67121 9.41893 4.17781 9.41893C3.68441 9.41893 3.28443 9.01895 3.28443 8.52555ZM7.77639 7.63217C7.28299 7.63217 6.883 8.03215 6.883 8.52555C6.883 9.01895 7.28299 9.41893 7.77639 9.41893C8.26978 9.41893 8.66978 9.01895 8.66978 8.52555C8.66978 8.03215 8.26978 7.63217 7.77639 7.63217ZM10.4816 8.52555C10.4816 8.03215 10.8816 7.63217 11.375 7.63217C11.8684 7.63217 12.2684 8.03215 12.2684 8.52555C12.2684 9.01895 11.8684 9.41893 11.375 9.41893C10.8816 9.41893 10.4816 9.01895 10.4816 8.52555ZM4.17781 11.2198C3.68441 11.2198 3.28443 11.6198 3.28443 12.1132C3.28443 12.6066 3.68441 13.0066 4.17781 13.0066C4.67122 13.0066 5.0712 12.6066 5.0712 12.1132C5.0712 11.6198 4.67122 11.2198 4.17781 11.2198ZM6.883 12.1132C6.883 11.6198 7.28298 11.2198 7.77639 11.2198C8.26979 11.2198 8.66978 11.6198 8.66978 12.1132C8.66978 12.6066 8.26979 13.0066 7.77639 13.0066C7.28298 13.0066 6.883 12.6066 6.883 12.1132ZM11.375 11.2198C10.8816 11.2198 10.4816 11.6198 10.4816 12.1132C10.4816 12.6066 10.8816 13.0066 11.375 13.0066C11.8684 13.0066 12.2684 12.6066 12.2684 12.1132C12.2684 11.6198 11.8684 11.2198 11.375 11.2198Z" fill="#BCBBBB"/>
</svg>
