<svg width="18" height="18" viewBox="0 0 18 18" fill="none" xmlns="http://www.w3.org/2000/svg">
<path d="M11.1897 8.83335L17.0814 2.94002C17.5147 2.52156 17.6884 1.90189 17.5359 1.31917C17.3834 0.736454 16.9283 0.281379 16.3456 0.128853C15.7629 -0.0236726 15.1432 0.150087 14.7247 0.583348L8.83141 6.47502L2.93974 0.583348C2.52128 0.150087 1.90161 -0.0236726 1.31889 0.128853C0.736179 0.281379 0.281104 0.736454 0.128578 1.31917C-0.0239473 1.90189 0.149813 2.52156 0.583074 2.94002L6.47474 8.83168L0.583074 14.725C0.149813 15.1435 -0.0239473 15.7631 0.128578 16.3459C0.281104 16.9286 0.736179 17.3837 1.31889 17.5362C1.90161 17.6887 2.52128 17.5149 2.93974 17.0817L8.83141 11.19L14.7247 17.0817C15.1432 17.5149 15.7629 17.6887 16.3456 17.5362C16.9283 17.3837 17.3834 16.9286 17.5359 16.3459C17.6884 15.7631 17.5147 15.1435 17.0814 14.725L11.1897 8.83168V8.83335Z" fill="#797676"/>
</svg>
