<svg xmlns="http://www.w3.org/2000/svg" width="44.745" height="47.993" viewBox="0 0 44.745 47.993">
  <g id="connect" transform="translate(-0.128 0)">
    <path id="Shape" d="M8.6,43.222a4.577,4.577,0,0,1-6.8-4,4.518,4.518,0,0,1,.982-2.828A22.163,22.163,0,0,1,0,25.62,22.4,22.4,0,0,1,17.9,3.7a4.551,4.551,0,0,1,8.94,0,22.356,22.356,0,0,1,15.15,32.656A4.583,4.583,0,0,1,38.415,43.8a4.452,4.452,0,0,1-2.242-.593A22.287,22.287,0,0,1,8.6,43.222Z" transform="translate(0.128 0)" fill="#71c9d9"/>
    <path id="Shape-2" data-name="Shape" d="M8.243,28.868a16.432,16.432,0,0,1,0-28.492L8.9,0l.653.375a16.433,16.433,0,0,1,0,28.492l-.653.375Z" transform="translate(13.605 10.703)" fill="#71c9d9"/>
  </g>
</svg>
