<svg width="45" height="48" viewBox="0 0 45 48" fill="none" xmlns="http://www.w3.org/2000/svg">
<path fill-rule="evenodd" clip-rule="evenodd" d="M44.873 25.62C44.8619 14.9908 37.3831 5.83258 26.9705 3.69749C26.5609 1.55194 24.6848 0 22.5005 0C20.3162 0 18.44 1.55194 18.0305 3.69749C7.61789 5.83258 0.139072 14.9908 0.127974 25.62C0.122666 29.3875 1.07773 33.0942 2.90297 36.39C2.26396 37.1936 1.91747 38.1908 1.92047 39.2175C1.91854 40.8407 2.77651 42.3436 4.17533 43.1671C5.57415 43.9907 7.30453 44.0118 8.72297 43.2225C16.8154 49.5881 28.215 49.5819 36.3005 43.2075C36.9824 43.5998 37.7562 43.8042 38.543 43.8C40.3049 43.7996 41.9106 42.7893 42.6735 41.2011C43.4364 39.613 43.2214 37.7281 42.1205 36.3525C43.9307 33.0653 44.8777 29.3727 44.873 25.62ZM22.5004 2.62499C23.0633 2.62483 23.5979 2.87156 23.9629 3.29999C24.2646 3.64733 24.4298 4.09243 24.4279 4.55249C24.4207 5.61282 23.5608 6.46947 22.5004 6.47249C21.9899 6.47448 21.4996 6.27308 21.1379 5.91279C20.7762 5.55251 20.5729 5.06301 20.5729 4.55249C20.5755 3.48905 21.437 2.62763 22.5004 2.62499ZM4.5454 39.2175C4.54459 40.2757 5.38517 41.1429 6.4429 41.175H6.4954C7.48057 41.174 8.31202 40.4421 8.4379 39.465C8.4454 39.3825 8.4529 39.3 8.4529 39.2175C8.4522 38.1669 7.62032 37.3052 6.5704 37.2675H6.4954C5.51653 37.2671 4.68889 37.9921 4.5604 38.9625C4.5529 39.045 4.5454 39.135 4.5454 39.2175ZM22.5004 45.3675C18.1848 45.3734 13.9878 43.9551 10.5604 41.3325C11.4214 39.6802 11.1945 37.6707 9.98671 36.252C8.7789 34.8333 6.83145 34.2887 5.0629 34.875C3.54035 32.0281 2.74671 28.8484 2.7529 25.62C2.76383 16.3347 9.23589 8.30862 18.3079 6.32999C19.0254 8.00859 20.6749 9.09744 22.5004 9.09744C24.3259 9.09744 25.9754 8.00859 26.6929 6.32999C32.7315 7.6367 37.8091 11.697 40.4119 17.3003C43.0147 22.9037 42.842 29.4028 39.9454 34.86C38.5531 34.415 37.0321 34.6609 35.851 35.522C34.6698 36.383 33.9703 37.7558 33.9679 39.2175C33.9649 39.9437 34.14 40.6596 34.4779 41.3025C31.0439 43.9432 26.8323 45.3726 22.5004 45.3675ZM38.5504 41.175C39.6286 41.1709 40.5004 40.2957 40.5004 39.2175C40.5004 39.1146 40.4928 39.0118 40.4779 38.91C40.3222 37.9625 39.5031 37.2673 38.5429 37.2675C38.5052 37.2663 38.4676 37.2688 38.4304 37.275C37.399 37.3312 36.5918 38.1845 36.5929 39.2175C36.5917 39.2851 36.5942 39.3527 36.6004 39.42V39.4275C36.7077 40.42 37.5446 41.1729 38.5429 41.175H38.5504Z" fill="#71C9D9"/>
<path fill-rule="evenodd" clip-rule="evenodd" d="M22.5003 10.7025L23.1528 11.0775C28.2519 14.0089 31.3956 19.4421 31.3956 25.3238C31.3956 31.2055 28.2519 36.6387 23.1528 39.57L22.5003 39.945L21.8478 39.57C16.7486 36.6387 13.605 31.2055 13.605 25.3238C13.605 19.4421 16.7486 14.0089 21.8478 11.0775L22.5003 10.7025ZM23.819 35.8968C23.8181 35.9023 23.8173 35.9078 23.8173 35.9135C27.1769 33.1066 29.0057 28.8724 28.746 24.5022C28.4862 20.132 26.1687 16.1442 22.5003 13.755C18.8287 16.1452 16.5103 20.1369 16.2537 24.5105C15.9971 28.884 17.8327 33.1195 21.1996 35.9226C21.1994 35.9159 21.1984 35.9094 21.1975 35.9029C21.1964 35.8955 21.1953 35.888 21.1953 35.88V26.8231L18.3872 24.015C17.8876 23.5003 17.8937 22.6799 18.4009 22.1728C18.9081 21.6656 19.7285 21.6595 20.2431 22.1591L21.1956 23.1116V19.7278C21.1956 19.0029 21.7833 18.4153 22.5081 18.4153C23.233 18.4153 23.8206 19.0029 23.8206 19.7278V26.7576L24.9933 25.585C25.3231 25.2452 25.8104 25.1094 26.2685 25.2297C26.7265 25.35 27.0842 25.7077 27.2045 26.1658C27.3248 26.6238 27.189 27.1111 26.8492 27.4409L23.8206 30.4695V35.8799C23.8206 35.8856 23.8198 35.8912 23.819 35.8968Z" fill="#71C9D9"/>
</svg>
