<svg width="16" height="16" viewBox="0 0 16 16" fill="none" xmlns="http://www.w3.org/2000/svg">
<path fill-rule="evenodd" clip-rule="evenodd" d="M8 16C3.5816 16 0 12.4184 0 8C0 3.5816 3.5816 0 8 0C12.4184 0 16 3.5816 16 8C16 12.4184 12.4184 16 8 16ZM8 14.4C11.5346 14.4 14.4 11.5346 14.4 8C14.4 4.46538 11.5346 1.6 8 1.6C4.46538 1.6 1.6 4.46538 1.6 8C1.6 11.5346 4.46538 14.4 8 14.4ZM8.8 12V8.8H12C12.4418 8.8 12.8 8.44183 12.8 8C12.8 7.55817 12.4418 7.2 12 7.2H8.8V4C8.8 3.55817 8.44183 3.2 8 3.2C7.55817 3.2 7.2 3.55817 7.2 4V7.2H4C3.55817 7.2 3.2 7.55817 3.2 8C3.2 8.44183 3.55817 8.8 4 8.8H7.2V12C7.2 12.4418 7.55817 12.8 8 12.8C8.44183 12.8 8.8 12.4418 8.8 12Z" fill="black"/>
<mask id="mask0" mask-type="alpha" maskUnits="userSpaceOnUse" x="0" y="0" width="16" height="16">
<path fill-rule="evenodd" clip-rule="evenodd" d="M8 16C3.5816 16 0 12.4184 0 8C0 3.5816 3.5816 0 8 0C12.4184 0 16 3.5816 16 8C16 12.4184 12.4184 16 8 16ZM8 14.4C11.5346 14.4 14.4 11.5346 14.4 8C14.4 4.46538 11.5346 1.6 8 1.6C4.46538 1.6 1.6 4.46538 1.6 8C1.6 11.5346 4.46538 14.4 8 14.4ZM8.8 12V8.8H12C12.4418 8.8 12.8 8.44183 12.8 8C12.8 7.55817 12.4418 7.2 12 7.2H8.8V4C8.8 3.55817 8.44183 3.2 8 3.2C7.55817 3.2 7.2 3.55817 7.2 4V7.2H4C3.55817 7.2 3.2 7.55817 3.2 8C3.2 8.44183 3.55817 8.8 4 8.8H7.2V12C7.2 12.4418 7.55817 12.8 8 12.8C8.44183 12.8 8.8 12.4418 8.8 12Z" fill="white"/>
</mask>
<g mask="url(#mask0)">
<rect width="16" height="16" fill="#FF8080"/>
</g>
</svg>
