<svg width="12" height="12" viewBox="0 0 12 12" fill="none" xmlns="http://www.w3.org/2000/svg">
<path d="M7.61509 6.00057L11.6514 1.96313C11.9482 1.67645 12.0673 1.25192 11.9628 0.85271C11.8583 0.4535 11.5465 0.141734 11.1473 0.0372411C10.7481 -0.0672522 10.3236 0.0517884 10.0369 0.34861L5.99943 4.38491L1.96313 0.34861C1.67645 0.0517884 1.25192 -0.0672522 0.85271 0.0372411C0.4535 0.141734 0.141734 0.4535 0.0372411 0.85271C-0.0672522 1.25192 0.0517884 1.67645 0.34861 1.96313L4.38491 5.99943L0.34861 10.0369C0.0517884 10.3236 -0.0672522 10.7481 0.0372411 11.1473C0.141734 11.5465 0.4535 11.8583 0.85271 11.9628C1.25192 12.0673 1.67645 11.9482 1.96313 11.6514L5.99943 7.61509L10.0369 11.6514C10.3236 11.9482 10.7481 12.0673 11.1473 11.9628C11.5465 11.8583 11.8583 11.5465 11.9628 11.1473C12.0673 10.7481 11.9482 10.3236 11.6514 10.0369L7.61509 5.99943V6.00057Z" fill="#FF8080"/>
</svg>
