<svg width="79" height="79" viewBox="0 0 79 79" fill="none" xmlns="http://www.w3.org/2000/svg">
<rect opacity="0.1" width="79" height="79" rx="3" fill="#E69775"/>
<path fill-rule="evenodd" clip-rule="evenodd" d="M60 47.7V32.325C60 29.4946 57.7055 27.2 54.875 27.2C52.0445 27.2 49.75 29.4946 49.75 32.325V37.45H47.6754V26.5563C47.3343 22.1626 43.5815 18.8242 39.1779 18.9973C34.7744 19.1704 31.2951 22.7931 31.3 27.2V41.55H29.25V36.425C29.25 33.5946 26.9555 31.3 24.125 31.3C21.2945 31.3 19 33.5946 19 36.425V51.8H31.3V60H47.7V47.7H60ZM43.6 55.9H35.4V47.7H23.1V36.425C23.1 35.8589 23.5589 35.4 24.125 35.4C24.6911 35.4 25.15 35.8589 25.15 36.425V45.65H35.4V27.2C35.4 24.9357 37.2356 23.1 39.5 23.1C41.7644 23.1 43.6 24.9357 43.6 27.2V41.55H53.85V32.325C53.85 31.7589 54.3089 31.3 54.875 31.3C55.4411 31.3 55.9 31.7589 55.9 32.325V43.6H43.6V55.9ZM39.5 37.45C40.6322 37.45 41.55 38.3678 41.55 39.5V51.8C41.55 52.9322 40.6322 53.85 39.5 53.85C38.3678 53.85 37.45 52.9322 37.45 51.8V39.5C37.45 38.3678 38.3678 37.45 39.5 37.45ZM41.55 29.25C41.55 28.1178 40.6322 27.2 39.5 27.2C38.3678 27.2 37.45 28.1178 37.45 29.25V33.35C37.45 34.4822 38.3678 35.4 39.5 35.4C40.6322 35.4 41.55 34.4822 41.55 33.35V29.25Z" fill="#E69775"/>
</svg>
