<svg width="79" height="79" viewBox="0 0 79 79" fill="none" xmlns="http://www.w3.org/2000/svg">
<rect opacity="0.1" width="79" height="79" rx="3" fill="#71C9D9"/>
<path fill-rule="evenodd" clip-rule="evenodd" d="M41.55 27.2C41.55 22.6713 37.8787 19 33.35 19C28.8213 19 25.15 22.6713 25.15 27.2V31.3C25.15 35.8287 28.8213 39.5 33.35 39.5C37.8787 39.5 41.55 35.8287 41.55 31.3V27.2ZM28.3102 39.9127C27.7219 39.4538 26.9309 39.3507 26.2447 39.6435C21.8739 41.3655 19.0006 45.5852 19 50.283V53.85C19 57.2466 21.7534 60 25.15 60H41.55C44.9466 60 47.7 57.2466 47.7 53.85V50.4736C47.6996 45.6609 44.7273 41.3484 40.2298 39.6353C39.54 39.3483 38.7487 39.4593 38.1644 39.925C37.5802 40.3907 37.2956 41.1374 37.4217 41.8738C37.5477 42.6102 38.0644 43.2198 38.7702 43.4647C41.6786 44.5724 43.6005 47.3615 43.6 50.4736V53.85C43.6 54.9822 42.6822 55.9 41.55 55.9H25.15C24.0178 55.9 23.1 54.9822 23.1 53.85V50.283C23.0999 47.2689 24.9431 44.5614 27.7473 43.4565C28.4488 43.2024 28.9568 42.5874 29.0738 41.8506C29.1909 41.1138 28.8984 40.3716 28.3102 39.9127ZM33.35 23.1C31.0856 23.1 29.25 24.9356 29.25 27.2V31.3C29.25 33.5644 31.0856 35.4 33.35 35.4C35.6144 35.4 37.45 33.5644 37.45 31.3V27.2C37.45 24.9356 35.6144 23.1 33.35 23.1ZM57.95 29.25H53.85V25.15C53.85 24.0178 52.9322 23.1 51.8 23.1C50.6678 23.1 49.75 24.0178 49.75 25.15V29.25H45.65C44.5178 29.25 43.6 30.1678 43.6 31.3C43.6 32.4322 44.5178 33.35 45.65 33.35H49.75V37.45C49.75 38.5822 50.6678 39.5 51.8 39.5C52.9322 39.5 53.85 38.5822 53.85 37.45V33.35H57.95C59.0822 33.35 60 32.4322 60 31.3C60 30.1678 59.0822 29.25 57.95 29.25Z" fill="black"/>
<mask id="mask0" mask-type="alpha" maskUnits="userSpaceOnUse" x="19" y="19" width="41" height="41">
<path fill-rule="evenodd" clip-rule="evenodd" d="M41.55 27.2C41.55 22.6713 37.8787 19 33.35 19C28.8213 19 25.15 22.6713 25.15 27.2V31.3C25.15 35.8287 28.8213 39.5 33.35 39.5C37.8787 39.5 41.55 35.8287 41.55 31.3V27.2ZM28.3102 39.9127C27.7219 39.4538 26.9309 39.3507 26.2447 39.6435C21.8739 41.3655 19.0006 45.5852 19 50.283V53.85C19 57.2466 21.7534 60 25.15 60H41.55C44.9466 60 47.7 57.2466 47.7 53.85V50.4736C47.6996 45.6609 44.7273 41.3484 40.2298 39.6353C39.54 39.3483 38.7487 39.4593 38.1644 39.925C37.5802 40.3907 37.2956 41.1374 37.4217 41.8738C37.5477 42.6102 38.0644 43.2198 38.7702 43.4647C41.6786 44.5724 43.6005 47.3615 43.6 50.4736V53.85C43.6 54.9822 42.6822 55.9 41.55 55.9H25.15C24.0178 55.9 23.1 54.9822 23.1 53.85V50.283C23.0999 47.2689 24.9431 44.5614 27.7473 43.4565C28.4488 43.2024 28.9568 42.5874 29.0738 41.8506C29.1909 41.1138 28.8984 40.3716 28.3102 39.9127ZM33.35 23.1C31.0856 23.1 29.25 24.9356 29.25 27.2V31.3C29.25 33.5644 31.0856 35.4 33.35 35.4C35.6144 35.4 37.45 33.5644 37.45 31.3V27.2C37.45 24.9356 35.6144 23.1 33.35 23.1ZM57.95 29.25H53.85V25.15C53.85 24.0178 52.9322 23.1 51.8 23.1C50.6678 23.1 49.75 24.0178 49.75 25.15V29.25H45.65C44.5178 29.25 43.6 30.1678 43.6 31.3C43.6 32.4322 44.5178 33.35 45.65 33.35H49.75V37.45C49.75 38.5822 50.6678 39.5 51.8 39.5C52.9322 39.5 53.85 38.5822 53.85 37.45V33.35H57.95C59.0822 33.35 60 32.4322 60 31.3C60 30.1678 59.0822 29.25 57.95 29.25Z" fill="white"/>
</mask>
<g mask="url(#mask0)">
<rect x="19" y="19" width="41" height="41" fill="#71C9D9"/>
</g>
</svg>
