<svg width="79" height="79" viewBox="0 0 79 79" fill="none" xmlns="http://www.w3.org/2000/svg">
<rect opacity="0.1" width="79" height="79" rx="3" fill="#FF8080"/>
<path d="M33.5878 44.1163L31.3 26.0511L29.0122 44.1143H21.05C19.9184 44.1143 19 43.2173 19 42.1109C19.0135 40.9902 19.9307 40.092 21.05 40.1034H25.3878L27.2328 25.5585C27.5075 23.3581 29.5575 21.7981 31.8022 22.069C33.6677 22.2948 35.1356 23.7317 35.3672 25.5585L37.2101 40.1034H41.2568L43.6 54.9768L45.9411 40.1055H57.95C59.0816 40.1055 60 41.0046 60 42.113C60 43.2214 59.0816 44.1184 57.95 44.1184H49.4589L47.6528 55.5864C47.363 57.3332 45.976 58.6905 44.2253 58.9404C41.9867 59.2791 39.8936 57.7766 39.5471 55.5864L37.7432 44.1184H33.5857L33.5878 44.1163Z" fill="#FF8080"/>
</svg>
