<svg width="13" height="17" viewBox="0 0 13 17" fill="none" xmlns="http://www.w3.org/2000/svg">
<path fill-rule="evenodd" clip-rule="evenodd" d="M12.0518 4.0625L11.4603 14.7144C11.4129 15.5758 10.7005 16.25 9.83775 16.25H3.16225C2.2995 16.25 1.58714 15.5758 1.53969 14.7144L0.948187 4.0625H0.8125C0.363769 4.0625 0 3.69873 0 3.25V0.8125C0 0.363769 0.363769 0 0.8125 0H12.1875C12.6362 0 13 0.363769 13 0.8125V3.25C13 3.69873 12.6362 4.0625 12.1875 4.0625H12.0518ZM10.4244 4.0625H2.57562L3.16225 14.625H9.83775L10.4244 4.0625ZM1.625 2.4375V1.625H11.375V2.4375H1.625ZM4.875 5.6875C5.32373 5.6875 5.6875 6.05127 5.6875 6.5V12.1875C5.6875 12.6362 5.32373 13 4.875 13C4.42627 13 4.0625 12.6362 4.0625 12.1875V6.5C4.0625 6.05127 4.42627 5.6875 4.875 5.6875ZM8.9375 6.5C8.9375 6.05127 8.57373 5.6875 8.125 5.6875C7.67627 5.6875 7.3125 6.05127 7.3125 6.5V12.1875C7.3125 12.6362 7.67627 13 8.125 13C8.57373 13 8.9375 12.6362 8.9375 12.1875V6.5Z" fill="#FF8080"/>
</svg>
