<svg width="49" height="48" viewBox="0 0 49 48" fill="none" xmlns="http://www.w3.org/2000/svg">
<path fill-rule="evenodd" clip-rule="evenodd" d="M1.02066 38.6329C2.24204 44.1099 7.10342 48.0039 12.7149 48C16.2645 48.0026 19.6312 46.4253 21.901 43.6963C25.4955 39.3871 25.6149 33.1596 22.1883 28.7158C18.7618 24.2719 12.7086 22.8041 7.62708 25.1848C2.54561 27.5655 -0.200722 33.156 1.02066 38.6329ZM4.04684 32.4221C5.50334 28.9234 8.92518 26.6477 12.7149 26.6572C17.876 26.6684 22.0542 30.855 22.0548 36.0161C22.0566 39.8059 19.7739 43.2231 16.2722 44.6725C12.7706 46.1218 8.74053 45.3175 6.06349 42.635C3.38645 39.9525 2.59035 35.9208 4.04684 32.4221Z" fill="#71C9D9"/>
<path fill-rule="evenodd" clip-rule="evenodd" d="M3.52806 43.695C5.79781 46.4246 9.16476 48.0024 12.7148 48C16.265 48.0029 19.6321 46.425 21.9016 43.695L22.5696 42.8944L21.9412 42.0631C19.7595 39.1646 16.3426 37.4598 12.7148 37.4598C9.08707 37.4598 5.67017 39.1646 3.48853 42.0631L2.86011 42.8944L3.52806 43.695ZM19.1367 42.8122C15.5375 46.2292 9.89283 46.2292 6.29368 42.8122C7.9753 41.0692 10.2932 40.0847 12.7152 40.0847C15.1371 40.0847 17.4551 41.0692 19.1367 42.8122Z" fill="#71C9D9"/>
<path fill-rule="evenodd" clip-rule="evenodd" d="M7.68336 36.7326C8.52784 38.7652 10.5139 40.0886 12.7149 40.0855C15.7158 40.0797 18.1459 37.646 18.1473 34.6451C18.1471 32.4441 16.8208 30.46 14.787 29.6185C12.7532 28.777 10.4127 29.244 8.85754 30.8015C7.30235 32.3589 6.83888 34.7001 7.68336 36.7326ZM10.1085 33.5629C10.5466 32.5111 11.5755 31.8272 12.7149 31.8303V31.83C14.2667 31.834 15.5225 33.0932 15.5223 34.6451C15.5224 35.7844 14.8358 36.8115 13.7829 37.2469C12.73 37.6823 11.5185 37.4401 10.7139 36.6334C9.90935 35.8267 9.67034 34.6146 10.1085 33.5629Z" fill="#71C9D9"/>
<path fill-rule="evenodd" clip-rule="evenodd" d="M25.0899 14.6007C26.3115 20.0779 31.1734 23.9719 36.7852 23.9677C40.3349 23.9705 43.7017 22.3931 45.9712 19.6637C49.5659 15.3543 49.6852 9.12641 46.2584 4.68237C42.8315 0.23834 36.7779 -1.22945 31.6962 1.15154C26.6145 3.53253 23.8682 9.12344 25.0899 14.6007ZM28.1171 8.38988C29.5736 4.89117 32.9955 2.61541 36.7852 2.625C41.9463 2.63612 46.1245 6.8228 46.1251 11.9839C46.1269 15.7736 43.8442 19.1908 40.3425 20.6402C36.8409 22.0896 32.8108 21.2853 30.1338 18.6028C27.4567 15.9203 26.6606 11.8886 28.1171 8.38988Z" fill="#71C9D9"/>
<path fill-rule="evenodd" clip-rule="evenodd" d="M27.5984 19.6627C29.868 22.3927 33.2351 23.9705 36.7852 23.9677C40.3352 23.9701 43.702 22.3925 45.9719 19.663L46.6399 18.8629L46.0115 18.0308C43.8298 15.1324 40.4129 13.4277 36.7852 13.4277C33.1574 13.4277 29.7406 15.1324 27.5588 18.0308L26.9304 18.8625L27.5984 19.6627ZM43.2063 18.7804C39.607 22.1968 33.9627 22.1968 30.3633 18.7804C32.0448 17.0371 34.3628 16.0525 36.7848 16.0525C39.2069 16.0525 41.5248 17.0371 43.2063 18.7804Z" fill="#71C9D9"/>
<path fill-rule="evenodd" clip-rule="evenodd" d="M31.7539 12.6998C32.598 14.7323 34.5837 16.0559 36.7845 16.0532C39.7857 16.0481 42.2164 13.6143 42.2176 10.6131C42.2175 8.41228 40.8914 6.42831 38.8578 5.58677C36.8242 4.74522 34.4839 5.21193 32.9286 6.76916C31.3734 8.32638 30.9097 10.6673 31.7539 12.6998ZM34.179 9.53135C34.6169 8.4797 35.6454 7.79561 36.7845 7.79837C38.3366 7.80164 39.593 9.06101 39.5926 10.6131C39.5927 11.7523 38.9061 12.7792 37.8534 13.2145C36.8008 13.6498 35.5895 13.4078 34.7849 12.6013C33.9804 11.7949 33.7412 10.583 34.179 9.53135Z" fill="#71C9D9"/>
<path d="M46.076 28.091L47.8474 28.2612C47.9984 28.2758 48.1433 28.1979 48.2145 28.0639C48.2857 27.9299 48.2691 27.7662 48.1725 27.6492L45.6384 24.5782C45.3749 24.2588 44.9024 24.2135 44.5829 24.4769L41.5111 27.0095C41.3941 27.1059 41.3467 27.2634 41.391 27.4084C41.4353 27.5535 41.5627 27.6575 41.7136 27.6721L43.4481 27.8387C41.9145 35.3168 36.068 41.1592 28.5888 42.6876L28.4225 40.9534C28.4079 40.8024 28.3039 40.6751 28.1588 40.6308C28.0138 40.5865 27.8563 40.6339 27.7599 40.7509L25.2268 43.8223C24.9633 44.1418 25.0087 44.6143 25.3281 44.8779L28.3987 47.4124C28.5157 47.5089 28.6793 47.5255 28.8133 47.4544C28.9473 47.3832 29.0252 47.2384 29.0107 47.0874L28.8408 45.3157C37.5718 43.6468 44.4018 36.8211 46.076 28.091Z" fill="#71C9D9"/>
<path d="M24.1718 3.12234L21.1011 0.587868C20.9841 0.491313 20.8205 0.474739 20.6865 0.545877C20.5526 0.617014 20.4746 0.761851 20.4891 0.912843L20.6591 2.68457C11.9281 4.35343 5.09827 11.1791 3.42405 19.909L1.65263 19.7388C1.50161 19.7243 1.35671 19.8022 1.28553 19.9362C1.21436 20.0701 1.23092 20.2338 1.3275 20.3508L3.86138 23.4218C4.12493 23.7411 4.59744 23.7865 4.91693 23.5231L7.9887 20.9905C8.10573 20.894 8.15313 20.7366 8.1088 20.5915C8.06448 20.4465 7.93716 20.3424 7.7862 20.3279L6.05198 20.1614C7.58548 12.6831 13.4318 6.84052 20.911 5.31174L21.0773 7.04664C21.0919 7.1976 21.196 7.32492 21.341 7.36924C21.486 7.41356 21.6435 7.36617 21.74 7.24914L24.273 4.17767C24.5363 3.85825 24.491 3.38592 24.1718 3.12234Z" fill="#71C9D9"/>
</svg>
