<svg xmlns="http://www.w3.org/2000/svg" width="48.018" height="47.981" viewBox="0 0 48.018 47.981">
  <g id="engage" transform="translate(-0.732 -0.019)">
    <g id="Group" transform="translate(0 24)">
      <path id="Shape" d="M11.983,23.947a11.946,11.946,0,1,1,.009,0Z" transform="translate(0.732 0.053)" fill="#71c9d9"/>
      <path id="Shape-2" data-name="Shape" d="M9.855,10.54a11.936,11.936,0,0,1-9.187-4.3L0,5.434.628,4.6a11.547,11.547,0,0,1,18.453,0l.628.831-.668.8a11.932,11.932,0,0,1-9.174,4.3Z" transform="translate(2.86 13.46)" fill="#71c9d9"/>
      <path id="Shape-3" data-name="Shape" d="M.417,7.528A5.44,5.44,0,1,1,5.448,10.88H5.439A5.439,5.439,0,0,1,.417,7.528Z" transform="translate(7.267 5.205)" fill="#71c9d9"/>
    </g>
    <g id="Group-2" data-name="Group" transform="translate(24.75)">
      <path id="Shape-4" data-name="Shape" d="M.288,14.581a11.974,11.974,0,1,1,11.7,9.367h-.01A11.974,11.974,0,0,1,.288,14.581Z" transform="translate(0.051 0.02)" fill="#71c9d9"/>
      <path id="Shape-5" data-name="Shape" d="M9.855,10.54a11.936,11.936,0,0,1-9.187-4.3L0,5.435.628,4.6a11.547,11.547,0,0,1,18.453,0l.628.832-.668.8a11.936,11.936,0,0,1-9.177,4.3Z" transform="translate(2.18 13.428)" fill="#71c9d9"/>
      <path id="Shape-6" data-name="Shape" d="M.416,7.527A5.44,5.44,0,1,1,5.447,10.88H5.44A5.441,5.441,0,0,1,.416,7.527Z" transform="translate(6.588 5.173)" fill="#71c9d9"/>
    </g>
    <g id="Group-3" data-name="Group" transform="translate(0.75)">
      <path id="Path" d="M21.021,3.786l1.771.17a.375.375,0,0,0,.325-.612L20.583.273a.75.75,0,0,0-1.056-.1L16.456,2.7a.375.375,0,0,0,.2.663l1.734.167A19.065,19.065,0,0,1,3.533,18.382l-.166-1.734a.375.375,0,0,0-.663-.2L.171,19.517a.75.75,0,0,0,.1,1.056l3.071,2.534a.375.375,0,0,0,.612-.325l-.17-1.772A21.7,21.7,0,0,0,21.021,3.786Z" transform="translate(24.306 24.306)" fill="#71c9d9"/>
      <path id="Path-2" data-name="Path" d="M22.93,2.62,19.859.086a.375.375,0,0,0-.612.325l.17,1.772A21.7,21.7,0,0,0,2.182,19.407l-1.771-.17a.375.375,0,0,0-.325.612L2.62,22.92a.75.75,0,0,0,1.056.1l3.072-2.533a.375.375,0,0,0-.2-.663L4.81,19.659A19.066,19.066,0,0,1,19.669,4.81l.166,1.735a.375.375,0,0,0,.663.2l2.533-3.071A.75.75,0,0,0,22.93,2.62Z" transform="translate(0.492 0.502)" fill="#71c9d9"/>
    </g>
  </g>
</svg>
