<svg width="48" height="48" viewBox="0 0 48 48" fill="none" xmlns="http://www.w3.org/2000/svg">
<path fill-rule="evenodd" clip-rule="evenodd" d="M42 3.75H38.1467V1.3125C38.1467 0.587626 37.5591 0 36.8342 0C36.1094 0 35.5217 0.587626 35.5217 1.3125V3.75H12.4783V1.3125C12.4783 0.587626 11.8906 0 11.1658 0C10.4409 0 9.85328 0.587626 9.85328 1.3125V3.75H6C2.68629 3.75 0 6.43629 0 9.75V42C0 45.3137 2.68629 48 6 48H42C45.3137 48 48 45.3137 48 42V9.75C48 6.43629 45.3137 3.75 42 3.75ZM45.375 42C45.3729 43.8631 43.8631 45.3729 42 45.375H6C4.13691 45.3729 2.62711 43.8631 2.625 42V16.8808H45.375V42ZM2.625 9.75V14.2558H45.375V9.75C45.3729 7.88691 43.8631 6.37711 42 6.375H38.1467V8.93153C38.1467 9.6564 37.5591 10.244 36.8342 10.244C36.1094 10.244 35.5217 9.6564 35.5217 8.93153V6.375H12.4783V8.93153C12.4783 9.6564 11.8906 10.244 11.1658 10.244C10.4409 10.244 9.85328 9.6564 9.85328 8.93153V6.375H6C4.13691 6.37711 2.62711 7.88691 2.625 9.75ZM9.85328 24.8965C9.85328 23.792 10.7487 22.8965 11.8533 22.8965H13.2136C14.3182 22.8965 15.2136 23.792 15.2136 24.8965V26.2568C15.2136 27.3613 14.3182 28.2568 13.2136 28.2568H11.8533C10.7487 28.2568 9.85328 27.3613 9.85328 26.2568V24.8965ZM22.649 22.8965C21.5444 22.8965 20.649 23.792 20.649 24.8965V26.2568C20.649 27.3613 21.5444 28.2568 22.649 28.2568H24.0093C25.1139 28.2568 26.0093 27.3613 26.0093 26.2568V24.8965C26.0093 23.792 25.1139 22.8965 24.0093 22.8965H22.649ZM31.4449 24.8965C31.4449 23.792 32.3403 22.8965 33.4449 22.8965H34.8051C35.9097 22.8965 36.8051 23.792 36.8051 24.8965V26.2568C36.8051 27.3613 35.9097 28.2568 34.8051 28.2568H33.4449C32.3403 28.2568 31.4449 27.3613 31.4449 26.2568V24.8965ZM11.8533 33.6595C10.7487 33.6595 9.85328 34.5549 9.85328 35.6595V37.0198C9.85328 38.1244 10.7487 39.0198 11.8533 39.0198H13.2136C14.3182 39.0198 15.2136 38.1244 15.2136 37.0198V35.6595C15.2136 34.5549 14.3182 33.6595 13.2136 33.6595H11.8533ZM20.649 35.6595C20.649 34.5549 21.5444 33.6595 22.649 33.6595H24.0093C25.1139 33.6595 26.0093 34.5549 26.0093 35.6595V37.0198C26.0093 38.1244 25.1139 39.0198 24.0093 39.0198H22.649C21.5444 39.0198 20.649 38.1244 20.649 37.0198V35.6595ZM33.4449 33.6595C32.3403 33.6595 31.4449 34.5549 31.4449 35.6595V37.0198C31.4449 38.1244 32.3403 39.0198 33.4449 39.0198H34.8051C35.9097 39.0198 36.8051 38.1244 36.8051 37.0198V35.6595C36.8051 34.5549 35.9097 33.6595 34.8051 33.6595H33.4449Z" fill="#71C9D9"/>
</svg>
