<svg xmlns="http://www.w3.org/2000/svg" width="59.077" height="47.337" viewBox="0 0 59.077 47.337">
  <g id="supporter" transform="translate(0 -0.344)">
    <path id="Shape" d="M24.091,46.43a5.774,5.774,0,0,1-.436-.39L12.273,34.954a4.348,4.348,0,0,1-1.33-3.134,4.5,4.5,0,0,1,.887-2.661l-2.75-3.1L8.91,25.8,5.918,19.817a1.3,1.3,0,0,1-.858.265,1.414,1.414,0,0,1-.976-.532L.329,14.969A1.479,1.479,0,0,1,.536,12.9L15.644.335A1.392,1.392,0,0,1,16.708.009,1.419,1.419,0,0,1,17.743.6l3.7,4.583a1.478,1.478,0,0,1-.207,2.069L20.7,7.7l.651.443,7.6,3.46.414.237.473.3,6.829-3.252L38.172,7.4h-.148a1.478,1.478,0,0,1-.207-2.069L41.542.748A1.57,1.57,0,0,1,42.548.186a1.592,1.592,0,0,1,1.094.325L58.6,12.869a1.537,1.537,0,0,1,.207,1.981l-3.725,4.583a1.538,1.538,0,0,1-1.005.532h-.325l-2.129,3.7-2.188,5.529a4.167,4.167,0,0,1,.591,1.951,4.469,4.469,0,0,1-1.3,3.374l-.263.2L29.214,46.544s-.207.124-.512.286a4.207,4.207,0,0,1-4.611-.4Z" transform="translate(0 0.344)" fill="#fff"/>
  </g>
</svg>
