<svg width="60" height="48" viewBox="0 0 60 48" fill="none" xmlns="http://www.w3.org/2000/svg">
<path fill-rule="evenodd" clip-rule="evenodd" d="M43.6413 0.85571L58.601 13.2136C59.1462 13.7338 59.2339 14.5725 58.8081 15.1943L55.083 19.7768C54.8283 20.0762 54.4686 20.2666 54.0778 20.309H53.7526L51.6239 24.0045L49.4362 29.5331C49.7916 30.1246 49.9946 30.795 50.027 31.4843C50.0879 32.7425 49.6144 33.9677 48.7233 34.858L48.4601 35.0617L29.2139 46.8874C29.2139 46.8874 29.0067 47.0121 28.7021 47.1736C27.2234 47.9739 25.4101 47.8168 24.091 46.7741C23.9393 46.6519 23.794 46.5219 23.6558 46.3846L12.2735 35.2983C11.4223 34.4781 10.9419 33.3465 10.9431 32.1644C10.9473 31.2056 11.258 30.2733 11.83 29.5037L9.08052 26.3994L8.91002 26.147L5.91713 20.1613C5.67196 20.3489 5.36807 20.4432 5.05978 20.4273C4.67574 20.39 4.32348 20.1979 4.08418 19.8952L0.32947 15.3127C-0.180638 14.6828 -0.0883151 13.7596 0.536423 13.2432L15.6439 0.678756C15.9378 0.426825 16.3236 0.308959 16.7082 0.353556C17.1231 0.389188 17.5014 0.605172 17.7429 0.944325L21.4385 5.5274C21.9485 6.15734 21.8562 7.08047 21.2315 7.59694L20.6994 8.04002L21.3498 8.48309L28.9478 11.9426L29.3617 12.1791L29.8348 12.4745L36.6646 9.22239L38.1718 7.74417H38.0241C37.3995 7.22776 37.3071 6.30461 37.8172 5.67473L41.5423 1.0922C41.7939 0.784144 42.1533 0.583334 42.5475 0.53051C42.9397 0.500398 43.3293 0.616207 43.6413 0.85571ZM38.4381 11.558C38.3473 11.6663 38.237 11.7566 38.1129 11.8241L30.367 15.4014L24.7794 19.9839C24.4513 20.2409 24.256 20.6316 24.2472 21.0482C24.1992 21.5863 24.4486 22.1078 24.8976 22.4082L25.2819 22.7925C25.8446 23.3003 26.7001 23.3003 27.2627 22.7925L33.8556 17.53C34.3078 17.0886 35.0295 17.0886 35.4816 17.53L47.3077 27.1976L48.9336 22.7039L51.269 18.6239L40.4189 9.75454L38.4381 11.558ZM3.55193 14.5736L16.3827 3.95992L18.2452 6.26596L5.41442 16.85L3.55193 14.5736ZM14.343 33.0513L25.0283 43.5961C25.6462 44.401 26.7605 44.6316 27.647 44.1381L29.0013 43.3599L15.3777 29.9176L14.343 30.9523C14.0559 31.2192 13.895 31.5951 13.8999 31.987C13.894 32.3878 14.0544 32.7732 14.343 33.0513ZM46.7457 32.3122L31.579 41.6251L16.4123 26.9611C15.8374 26.3815 14.9015 26.3776 14.3218 26.9525L14.3133 26.9611L13.8702 27.4041L11.4163 24.4476L8.45965 18.21L18.512 9.90232L19.7537 10.8779C19.8503 10.9638 19.9601 11.0337 20.0789 11.0849L27.2926 14.0413L22.8875 17.7665C21.9179 18.5875 21.3384 19.7785 21.2906 21.0481C21.2233 22.2913 21.6851 23.505 22.562 24.3889L22.9462 24.7732C24.5316 26.3968 27.091 26.5504 28.8592 25.128L34.5356 20.6342L46.5387 30.568C46.8667 30.825 47.0621 31.2157 47.0709 31.6323C47.0482 31.8908 46.9327 32.1324 46.7457 32.3122ZM41.04 6.26596L53.7231 16.584L55.5856 14.5736L42.9025 3.98946L41.04 6.26596Z" fill="white"/>
</svg>
