<svg width="6" height="10" viewBox="0 0 6 10" fill="none" xmlns="http://www.w3.org/2000/svg">
<path d="M2.39958 6.55198C2.13558 6.26398 2.00358 5.91198 2.00358 5.49598C2.00358 5.17598 2.09558 4.88798 2.27958 4.63198C2.46358 4.37598 2.66358 4.18398 2.87958 4.05598C3.09558 3.92798 3.29558 3.77598 3.47958 3.59998C3.66358 3.42398 3.75558 3.24798 3.75558 3.07198C3.75558 2.87198 3.67558 2.70798 3.51558 2.57998C3.36358 2.45198 3.13158 2.38798 2.81958 2.38798C2.25158 2.38798 1.75958 2.63598 1.34358 3.13198L0.371582 2.03998C1.03558 1.26398 1.91158 0.875977 2.99958 0.875977C3.76758 0.875977 4.37558 1.05198 4.82358 1.40398C5.27158 1.74798 5.49558 2.20398 5.49558 2.77198C5.49558 3.09198 5.42758 3.37998 5.29158 3.63598C5.15558 3.89198 4.98758 4.09998 4.78758 4.25998C4.59558 4.41998 4.39958 4.56798 4.19958 4.70398C3.99958 4.83998 3.83158 4.98798 3.69558 5.14798C3.55958 5.30798 3.49158 5.47998 3.49158 5.66398C3.49158 5.87198 3.56358 6.03998 3.70758 6.16798L2.39958 6.55198ZM3.65958 8.84398C3.46758 9.03598 3.23958 9.13198 2.97558 9.13198C2.71158 9.13198 2.48358 9.03598 2.29158 8.84398C2.09958 8.65198 2.00358 8.42398 2.00358 8.15998C2.00358 7.89598 2.09958 7.66798 2.29158 7.47598C2.48358 7.28398 2.71158 7.18798 2.97558 7.18798C3.23958 7.18798 3.46758 7.28398 3.65958 7.47598C3.85158 7.66798 3.94758 7.89598 3.94758 8.15998C3.94758 8.42398 3.85158 8.65198 3.65958 8.84398Z" fill="white"/>
</svg>
