<svg width="41" height="35" viewBox="0 0 41 35" fill="none" xmlns="http://www.w3.org/2000/svg">
<path d="M38.5257 19.3346C37.9753 19.3346 37.6084 19.7015 37.6084 20.2518V32.1765C37.6084 32.7269 37.2415 33.0938 36.6912 33.0938H3.66899C3.11861 33.0938 2.75174 32.7268 2.75174 32.1765V20.2518C2.75174 19.7015 2.38479 19.3346 1.83449 19.3346C1.28418 19.3346 0.917236 19.7015 0.917236 20.2518V32.1765C0.917236 33.7359 2.10968 34.9284 3.66907 34.9284H36.6912C38.2506 34.9284 39.443 33.7359 39.443 32.1765V20.2518C39.443 19.7015 39.0761 19.3346 38.5257 19.3346Z" fill="#71C9D9"/>
<path fill-rule="evenodd" clip-rule="evenodd" d="M37.6085 6.49265H2.75184C1.19244 6.49265 0 7.68509 0 9.24448V15.1151C0 16.3992 0.917252 17.5 2.10977 17.7752L16.5111 20.9856V23.9209C16.5111 24.4713 16.878 24.8382 17.4283 24.8382H22.932C23.4824 24.8382 23.8493 24.4712 23.8493 23.9209V20.9856L38.2506 17.7752C39.4431 17.5 40.3604 16.3992 40.3604 15.115V9.2444C40.3604 7.68509 39.1679 6.49265 37.6085 6.49265ZM22.0148 23.0037H18.3457V19.3346H22.0148V23.0037ZM37.792 16.0323C38.2506 15.9406 38.5258 15.5736 38.5258 15.115V9.24448C38.5258 8.69418 38.1589 8.32723 37.6085 8.32723H2.75184C2.20153 8.32723 1.83458 8.6941 1.83458 9.24448V15.1151C1.83458 15.5737 2.10977 15.9406 2.5684 16.0324L16.5111 19.1511V18.4172C16.5111 17.8669 16.878 17.5 17.4283 17.5H22.932C23.4823 17.5 23.8493 17.8669 23.8493 18.4172V19.1511L37.792 16.0323Z" fill="#71C9D9"/>
<path d="M24.7667 0.0716553H15.5939C14.0345 0.0716553 12.842 1.2641 12.842 2.82349V3.74074C12.842 4.29113 13.209 4.658 13.7593 4.658C14.3096 4.658 14.6765 4.29105 14.6765 3.74074V2.82349C14.6765 2.27311 15.0435 1.90624 15.5938 1.90624H24.7666C25.317 1.90624 25.6839 2.27319 25.6839 2.82349V3.74074C25.6839 4.29113 26.0508 4.658 26.6011 4.658C27.1515 4.658 27.5184 4.29105 27.5184 3.74074V2.82349C27.5186 1.2641 26.3261 0.0716553 24.7667 0.0716553Z" fill="#71C9D9"/>
</svg>
