<svg width="35" height="35" viewBox="0 0 35 35" fill="none" xmlns="http://www.w3.org/2000/svg">
<path fill-rule="evenodd" clip-rule="evenodd" d="M17.5 0C7.83502 0 0 7.83502 0 17.5C0 27.165 7.83502 35 17.5 35C27.165 35 35 27.165 35 17.5C35 12.8587 33.1563 8.40752 29.8744 5.12563C26.5925 1.84374 22.1413 0 17.5 0ZM17.5 1.91406C26.1079 1.91406 33.0859 8.89212 33.0859 17.5C33.0859 26.1079 26.1079 33.0859 17.5 33.0859C8.89212 33.0859 1.91406 26.1079 1.91406 17.5C1.9238 8.89616 8.89616 1.9238 17.5 1.91406ZM6.75155 18.457H16.9531C17.7833 18.4561 18.4561 17.7833 18.457 16.9531V6.75183C18.457 6.22327 18.0286 5.7948 17.5 5.7948C16.9714 5.7948 16.543 6.22327 16.543 6.75183V16.543H6.75155C6.223 16.543 5.79452 16.9714 5.79452 17.5C5.79452 18.0286 6.223 18.457 6.75155 18.457Z" fill="#71C9D9"/>
</svg>
