<svg width="35" height="35" viewBox="0 0 35 35" fill="none" xmlns="http://www.w3.org/2000/svg">
<path d="M17.1639 17.7082C8.25779 17.719 0.823565 24.5071 0.00508045 33.3755C-0.0287408 33.7773 0.107409 34.175 0.380446 34.4718C0.653482 34.7686 1.03841 34.9374 1.44169 34.9371V34.9371C2.18461 34.9349 2.80266 34.3654 2.86543 33.6251C3.5439 26.2348 9.74247 20.5792 17.1639 20.5792C24.5853 20.5792 30.7839 26.2348 31.4623 33.6251C31.5251 34.3654 32.1432 34.9349 32.8862 34.9371V34.9371C33.2895 34.9374 33.6744 34.7686 33.9475 34.4718C34.2205 34.175 34.3566 33.7773 34.3228 33.3755C33.5044 24.507 26.07 17.7189 17.1639 17.7082V17.7082Z" fill="#71C9D9"/>
<path fill-rule="evenodd" clip-rule="evenodd" d="M25.581 8.41914C25.5818 13.0686 21.814 16.8387 17.1646 16.841C12.5135 16.837 8.74402 13.0675 8.73999 8.41641C8.74226 3.76696 12.5124 -0.00075486 17.1619 0C21.8113 0.000755314 25.5802 3.76969 25.581 8.41914ZM22.7099 8.42461C22.7122 5.35975 20.2295 2.87336 17.1646 2.87109C14.1012 2.87244 11.617 5.35305 11.6111 8.4164C11.6088 11.4813 14.0915 13.9677 17.1564 13.9699C20.2213 13.9722 22.7076 11.4895 22.7099 8.42461Z" fill="#71C9D9"/>
</svg>
