<svg width="36" height="35" viewBox="0 0 36 35" fill="none" xmlns="http://www.w3.org/2000/svg">
<path fill-rule="evenodd" clip-rule="evenodd" d="M30.8439 0.599973C32.6641 1.23735 34.0951 2.6683 34.7322 4.48811C37.0272 11.1183 32.7035 17.9515 22.5571 23.743C22.5482 24.1545 22.5593 24.5783 22.5708 25.0193V25.0194V25.0196L22.5716 25.05C22.6314 27.2634 22.6988 29.7728 20.2993 32.1721C19.1158 33.3611 17.696 34.2888 16.1317 34.8952C15.7056 35.0624 15.2268 35.0282 14.8288 34.8021C14.4308 34.5761 14.1563 34.1824 14.0818 33.7309V33.7298C13.897 32.607 13.6098 31.5035 13.2238 30.433C11.5765 32.4187 8.9235 34.2252 4.71442 34.2257C3.84779 34.2225 2.9827 34.1524 2.12684 34.0162L1.43478 33.9082L1.32734 33.2168C0.433303 27.4658 2.55022 24.0771 4.9183 22.1156C3.83985 21.7241 2.72725 21.4339 1.59493 21.2487C1.1473 21.1748 0.757048 20.9026 0.533084 20.5081C0.30535 20.1089 0.270363 19.6282 0.437901 19.2003C1.04437 17.6361 1.97211 16.2164 3.16127 15.0328C5.55825 12.6359 8.06431 12.7023 10.2795 12.7611L10.2832 12.7612C10.7354 12.7738 11.171 12.785 11.5896 12.7762C17.3832 2.62902 24.2164 -1.69211 30.8439 0.599973ZM6.91792 23.0141C3.30462 25.4491 2.80002 29.2198 3.12706 32.2168C6.12339 32.5471 9.89427 32.0401 12.3289 28.4252C11.1049 26.1227 9.22063 24.2384 6.91792 23.0141ZM21.4321 22.1794L20.7047 22.5967L20.6683 23.1044C20.6213 23.7751 20.6394 24.4494 20.6574 25.1013L20.6574 25.102C20.7135 27.1943 20.7619 29.0013 18.9442 30.8185C18.0634 31.7039 17.0258 32.418 15.8841 32.9245C14.0352 23.2134 6.88574 20.3086 2.40889 19.4488C2.91558 18.3069 3.62987 17.269 4.51546 16.3877C6.33226 14.5703 8.14375 14.6187 10.2315 14.6758L10.2534 14.6764C10.898 14.6933 11.5657 14.7108 12.2285 14.6641L12.7358 14.6282L13.1554 13.8981C16.2291 8.46674 22.5279 -0.248175 30.2175 2.40965C31.4834 2.85327 32.4787 3.84859 32.9221 5.11431C35.5824 12.8018 26.865 19.106 21.4321 22.1794ZM24.7157 8.09167C25.3981 7.3652 26.5403 7.32929 27.267 8.01148C27.2949 8.03764 27.322 8.06459 27.3481 8.09235C27.9956 8.80493 27.9695 9.90015 27.2889 10.5811C26.6082 11.2621 25.5127 11.289 24.7995 10.6423H24.7959C24.0692 9.96009 24.0333 8.81814 24.7157 8.09167Z" fill="#71C9D9"/>
</svg>
