<svg width="35" height="35" viewBox="0 0 35 35" fill="none" xmlns="http://www.w3.org/2000/svg">
<path fill-rule="evenodd" clip-rule="evenodd" d="M30.625 2.73438H27.8153V0.957031C27.8153 0.428477 27.3868 0 26.8583 0C26.3297 0 25.9013 0.428477 25.9013 0.957031V2.73438H9.09874V0.957031C9.09874 0.428477 8.67027 0 8.14171 0C7.61316 0 7.18468 0.428477 7.18468 0.957031V2.73438H4.375C1.95875 2.73438 0 4.69313 0 7.10938V30.625C0 33.0412 1.95875 35 4.375 35H30.625C33.0412 35 35 33.0412 35 30.625V7.10938C35 4.69313 33.0412 2.73438 30.625 2.73438ZM33.0859 30.625C33.0844 31.9835 31.9835 33.0844 30.625 33.0859H4.375C3.0165 33.0844 1.9156 31.9835 1.91406 30.625V12.309H33.0859V30.625ZM1.91406 7.10938V10.3949H33.0859V7.10938C33.0844 5.75087 31.9835 4.64997 30.625 4.64844H27.8153V6.51257C27.8153 7.04112 27.3868 7.4696 26.8583 7.4696C26.3297 7.4696 25.9013 7.04112 25.9013 6.51257V4.64844H9.09874V6.51257C9.09874 7.04112 8.67026 7.4696 8.14171 7.4696C7.61316 7.4696 7.18468 7.04112 7.18468 6.51257V4.64844H4.375C3.0165 4.64997 1.9156 5.75087 1.91406 7.10938ZM6.85143 18.6496C6.85143 17.5703 7.72641 16.6954 8.80571 16.6954C9.88502 16.6954 10.76 17.5703 10.76 18.6496C10.76 19.7289 9.88502 20.6039 8.80571 20.6039C7.72641 20.6039 6.85143 19.7289 6.85143 18.6496ZM16.6776 16.6954C15.5983 16.6954 14.7233 17.5703 14.7233 18.6496C14.7233 19.7289 15.5983 20.6039 16.6776 20.6039C17.7569 20.6039 18.6319 19.7289 18.6319 18.6496C18.6319 17.5703 17.7569 16.6954 16.6776 16.6954ZM22.5953 18.6496C22.5953 17.5703 23.4703 16.6954 24.5496 16.6954C25.6289 16.6954 26.5038 17.5703 26.5038 18.6496C26.5038 19.7289 25.6289 20.6039 24.5496 20.6039C23.4703 20.6039 22.5953 19.7289 22.5953 18.6496ZM8.80571 24.5434C7.72639 24.5434 6.85143 25.4183 6.85143 26.4977C6.85143 27.577 7.72639 28.4519 8.80571 28.4519C9.88503 28.4519 10.76 27.577 10.76 26.4977C10.76 25.4183 9.88503 24.5434 8.80571 24.5434ZM14.7233 26.4977C14.7233 25.4183 15.5983 24.5434 16.6776 24.5434C17.7569 24.5434 18.6319 25.4183 18.6319 26.4977C18.6319 27.577 17.7569 28.4519 16.6776 28.4519C15.5983 28.4519 14.7233 27.577 14.7233 26.4977ZM24.5496 24.5434C23.4703 24.5434 22.5953 25.4183 22.5953 26.4977C22.5953 27.577 23.4703 28.4519 24.5496 28.4519C25.6289 28.4519 26.5038 27.577 26.5038 26.4977C26.5038 25.4183 25.6289 24.5434 24.5496 24.5434Z" fill="#71C9D9"/>
</svg>
