<svg xmlns="http://www.w3.org/2000/svg" width="22.532" height="25.124" viewBox="0 0 22.532 25.124">
  <path id="Path_2256" data-name="Path 2256" d="M3961.252,3865.648c-7.5,2.553-3.959,14.852,3.126,12.531,7.294-2.32,4.168-14.851-3.126-12.531m.625,2.089c5-1.625,6.461,7.193,1.875,8.354C3958.751,3877.251,3956.667,3869.361,3961.877,3867.737Zm11.671,13.691c.625-2.088.209-15.316,0-18.8-.625-1.857-1.667-3.249-5.835-3.017h-8.962c-8.336,0-7.294,3.481-7.294,12.067,0,6.961-1.458,12.995,6.252,12.995,2.293,0,11.254.232,13.13-.464A8.425,8.425,0,0,0,3973.549,3881.428Zm-20.008-13.459c0-7.889-.208-6.5,15.006-6.5,2.292,0,3.334,1.16,3.334,3.712v13c0,2.785-1.25,3.712-3.751,3.712h-11.254c-2.709,0-3.543-1.16-3.543-4.177v-9.747Zm15.631-4.641a1.633,1.633,0,1,1-1.458,1.625A1.4,1.4,0,0,1,3969.172,3863.328Z" transform="translate(-3951.347 -3859.589)" fill="#707070" fill-rule="evenodd"/>
</svg>
