<svg xmlns="http://www.w3.org/2000/svg" width="22.092" height="24.442" viewBox="0 0 22.092 24.442">
  <path id="Path_2257" data-name="Path 2257" d="M4006.249,3871.672c.417.7.208,8.846.208,8.846h-3.334V3874c0-1.862-1.251-2.793-2.5-2.095-1.875.931-.833,6.285-1.042,8.613h-3.126v-11.64h3.126v1.629a3.6,3.6,0,0,1,3.959-1.862,3.1,3.1,0,0,1,2.292,1.4,16.175,16.175,0,0,0,.417,1.629m3.334-7.915c0-1.164.208-2.561-.417-3.259a2.348,2.348,0,0,0-2.084-.7h-17.715c-1.667,0-1.667,1.4-1.667,2.561v19.786c0,1.862.833,2.1,2.293,2.1h17.714c1.459,0,2.084-.465,2.084-2.327v-18.158Zm-17.09-.465c1.251,0,1.251.465,1.667.7a2.216,2.216,0,0,1,.208,2.561c-1.667,2.561-4.793-.466-2.917-2.794A1.267,1.267,0,0,1,3992.494,3863.292Zm1.667,5.586v11.64h-3.334v-11.64Z" transform="translate(-3987.7 -3859.8)" fill="#707070" fill-rule="evenodd"/>
</svg>
