<svg width="16" height="16" viewBox="0 0 16 16" fill="none" xmlns="http://www.w3.org/2000/svg">
<path fill-rule="evenodd" clip-rule="evenodd" d="M12.9371 7.69025C12.5226 8.63706 11.991 9.52815 11.3547 10.3427C14.0971 10.8127 15.9995 11.8426 15.9995 13.0351C15.9995 14.6725 12.4171 16 7.99976 16C3.58239 16 0 14.6725 0 13.0351C0 11.8426 1.90244 10.8127 4.64236 10.3427C4.00542 9.52726 3.47453 8.63432 3.06241 7.68525C2.90674 7.34333 2.78613 6.98652 2.70242 6.62028C2.67992 6.52028 2.66992 6.47028 2.66992 6.46028L2.64992 6.36278L2.65242 6.35778C2.56964 5.87404 2.55031 5.38157 2.59492 4.89283C2.88347 2.01354 5.37755 -0.134696 8.26781 0.0065851C11.1581 0.147866 13.4307 2.52911 13.4371 5.42281C13.4367 5.75423 13.4049 6.08487 13.3421 6.41028C13.3347 6.4821 13.3213 6.55318 13.3021 6.62278C13.2174 6.99018 13.0951 7.34789 12.9371 7.69025ZM3.55739 6.42778C3.62895 6.73908 3.73197 7.0423 3.86489 7.33276C4.31875 8.36894 4.91902 9.3346 5.64733 10.2002C5.86233 10.4627 6.09732 10.7327 6.35981 11.0101C6.87564 11.5592 7.42323 12.0776 7.99976 12.5626C8.5765 12.077 9.12488 11.5586 9.64222 11.0101C9.90221 10.7327 10.1372 10.4627 10.3522 10.2002C11.0798 9.33542 11.6808 8.37164 12.1371 7.33776C12.2724 7.04343 12.3771 6.73599 12.4496 6.42028C12.4566 6.39588 12.4611 6.37634 12.465 6.35997L12.4696 6.34028L12.4771 6.27529C12.5341 5.99472 12.5626 5.70911 12.5621 5.42281C12.5561 2.996 10.65 0.999275 8.22611 0.880678C5.8022 0.76208 3.71026 2.56319 3.4674 4.97783C3.42571 5.41523 3.44675 5.85634 3.5299 6.28779L3.5374 6.33529L3.55739 6.42778ZM7.99976 15.125C3.57989 15.125 0.874974 13.7726 0.874974 13.0351C0.874974 12.4626 2.49743 11.5226 5.28484 11.1276C5.98184 11.9233 6.74177 12.6615 7.55728 13.3351C7.8137 13.5484 8.18583 13.5484 8.44225 13.3351C9.25702 12.6615 10.0161 11.9233 10.7122 11.1276C13.4996 11.5226 15.1246 12.4626 15.1246 13.0351C15.1246 13.7726 12.4196 15.125 7.99976 15.125ZM10.7722 5.30532C10.7732 4.18375 10.0984 3.17206 9.06246 2.74215C8.02655 2.31225 6.83368 2.54883 6.04025 3.34154C5.24683 4.13424 5.00917 5.32691 5.43815 6.3632C5.86712 7.39948 6.8782 8.07523 7.99976 8.07523C9.52923 8.0735 10.7691 6.83478 10.7722 5.30532ZM6.10232 5.30532C6.10131 4.53764 6.56296 3.845 7.27191 3.55052C7.98085 3.25605 8.79739 3.41777 9.34057 3.96024C9.88376 4.5027 10.0466 5.31902 9.75301 6.02836C9.45947 6.73769 8.76744 7.20026 7.99976 7.20026C6.95331 7.19905 6.10491 6.35177 6.10232 5.30532Z" fill="#BCBBBB"/>
</svg>
