<svg xmlns="http://www.w3.org/2000/svg" width="15.999" height="16" viewBox="0 0 15.999 16">
  <path id="Combined_Shape" data-name="Combined Shape" d="M0,13.035c0-1.152,1.822-2.209,4.642-2.692A12.213,12.213,0,0,1,3.063,7.685,5.555,5.555,0,0,1,2.7,6.62c-.021-.093-.032-.149-.032-.16l-.021-.1,0-.005a5.66,5.66,0,0,1-.058-1.465A5.416,5.416,0,0,1,8,0c.089,0,.18,0,.269.006a5.432,5.432,0,0,1,5.17,5.416,5.271,5.271,0,0,1-.094.988,1.426,1.426,0,0,1-.041.212,5.556,5.556,0,0,1-.365,1.067,12.4,12.4,0,0,1-1.583,2.652C14.176,10.826,16,11.884,16,13.035,16,14.67,12.411,16,8,16S0,14.67,0,13.035Zm.875,0c0,.737,2.705,2.091,7.125,2.091s7.124-1.354,7.124-2.091c0-.537-1.534-1.5-4.413-1.907a19.7,19.7,0,0,1-2.27,2.208.691.691,0,0,1-.885,0,19.809,19.809,0,0,1-2.273-2.208C2.408,11.535.875,12.5.875,13.035ZM8,.876A4.544,4.544,0,0,0,3.53,6.287l.007.048.021.093a4.751,4.751,0,0,0,.307.905A11.839,11.839,0,0,0,5.648,10.2c.235.286.468.551.712.809A19.177,19.177,0,0,0,8,12.562,19.681,19.681,0,0,0,9.643,11.01c.251-.269.49-.541.709-.809a11.913,11.913,0,0,0,1.786-2.863,4.77,4.77,0,0,0,.312-.917c.009-.031.014-.053.018-.072l0-.008.007-.065a4.254,4.254,0,0,0,.086-.853A4.556,4.556,0,0,0,8.226.881C8.15.877,8.075.876,8,.876H8ZM5.438,6.363A2.773,2.773,0,1,1,8,8.075,2.767,2.767,0,0,1,5.438,6.363ZM7.272,3.551A1.9,1.9,0,1,0,8,3.406,1.892,1.892,0,0,0,7.272,3.551Z" fill="#ff8080"/>
</svg>
