<svg id="OSH-Logo" xmlns="http://www.w3.org/2000/svg" width="97" height="40" viewBox="0 0 97 40">
  <g id="OSH" transform="translate(0.263 0.268)">
    <path id="Path" d="M31.08,17.392a18.121,18.121,0,0,1-10.337,16.4A17.832,17.832,0,0,1,1.635,31.308l0,0A18.6,18.6,0,0,1,.094,29.527c-.024-.035-.067-.1-.094-.132.276.041.552.065.831.078l.043,0,.137.138a16.83,16.83,0,0,0,4.96,3.5l.021.008c.182.084.367.165.549.241a.23.23,0,0,0,.038.016c.174.07.348.141.523.205.091.035.185.07.279.1.145.054.292.1.442.151.107.035.212.068.319.1s.2.062.3.089c.22.062.439.122.662.173.107.027.217.054.324.076.217.049.434.092.654.13.305.057.611.1.919.141.029,0,.062.005.091.008H11.1a16.312,16.312,0,0,0,2.028.124,17.183,17.183,0,0,0,2.117-.13c.011,0,.019,0,.027,0a17.042,17.042,0,0,0,3.993-1.008l.016-.008A17.306,17.306,0,0,0,13.124.111q-.338,0-.675.016A17.674,17.674,0,0,1,14.566,0c.488,0,.973.019,1.45.059L15.984.054c.153.011.305.027.458.043s.281.03.423.049q.177.02.354.049L17.283.2c.056.008.113.016.166.027.241.038.482.081.718.13L18.2.368c.147.03.295.062.439.095.078.016.155.035.233.054.048.011.1.024.147.038.129.032.252.065.378.1a.762.762,0,0,1,.075.019c.131.038.263.076.394.116s.26.081.391.124l.281.095.107.041c.067.022.131.046.2.07l.185.07c.08.03.158.059.238.092.1.038.19.078.289.119,0,0,.008,0,.011.005h0s0,0,.005,0A18.113,18.113,0,0,1,28.229,7.6v0A18.144,18.144,0,0,1,31.08,17.392Z" transform="translate(5.246 1.472)" fill="#ababab"/>
    <rect id="Rectangle" width="1.771" height="0.003" transform="translate(14.378 16.556)" fill="#ff8080"/>
    <path id="Path-2" data-name="Path" d="M.918,0A.926.926,0,1,1,0,.926.922.922,0,0,1,.918,0Z" transform="translate(12.887 12.16)" fill="#ff8080"/>
    <path id="Path-3" data-name="Path" d="M.918,0A.926.926,0,1,1,0,.926.922.922,0,0,1,.918,0Z" transform="translate(15.801 12.16)" fill="#ff8080"/>
    <path id="Path-4" data-name="Path" d="M.918,0A.926.926,0,1,1,0,.926.922.922,0,0,1,.918,0Z" transform="translate(14.345 9.796)" fill="#ff8080"/>
    <path id="Path-5" data-name="Path" d="M26.811,4.759V4.364a2.576,2.576,0,0,0-1.576-2.38,2.538,2.538,0,0,0-2.784.558A2.592,2.592,0,0,0,21.9,5.35a2.554,2.554,0,0,0,2.36,1.59h4.325V8.729H16.4v0a.034.034,0,0,0,.016,0,.63.63,0,0,1-.1.005,2.1,2.1,0,0,1-1.289-.443,2.12,2.12,0,0,1-1.865.305A6.71,6.71,0,0,1,9.2,13.084a6.621,6.621,0,0,1-5.941-.493,6.983,6.983,0,0,1-3-4.186A6.439,6.439,0,0,1,.055,6.867,6.409,6.409,0,0,1,.238,4.2a.78.78,0,0,1,.472-.457.65.65,0,0,1,.33-.008.707.707,0,0,1,.147.043l.225.1.011.205,0,.041c.121,2.268.113,4.481,1.83,6.211A4.876,4.876,0,0,0,8.6,11.41a4.949,4.949,0,0,0,3.029-4.573V6.445h.008V.859H13.41V6.518a.387.387,0,0,0,.11.268l0,0a.378.378,0,0,0,.411.079.384.384,0,0,0,.235-.35V.859H15.94v5.7a.371.371,0,0,0,.11.268l0,0a.365.365,0,0,0,.265.111.381.381,0,0,0,.378-.381V.856h1.774v5.7a2,2,0,0,1-.035.381h2.331a4.393,4.393,0,0,1-.014-5.133A4.305,4.305,0,0,1,25.589.212a4.359,4.359,0,0,1,2.993,4.152v.395Z" transform="translate(0.209 15.7)" fill="#ff8080"/>
    <path id="Path-6" data-name="Path" d="M16.11,18.316A19,19,0,0,1,6.466,34.876l-.048.024c-.263.127-.528.251-.8.368-.11.046-.22.092-.33.135-.08.032-.158.062-.238.092l-.185.07c-.021.008-.046.019-.07.027s-.04.014-.062.022l-.115.041c-.113.041-.225.078-.338.116l-.289.095c-.177.054-.354.105-.531.157l-.062.016-.3.081q-.217.057-.434.105c-.075.019-.147.032-.222.051l-.051.011a.113.113,0,0,0-.029.005c-.131.03-.263.054-.4.078-.062.014-.121.024-.182.035-.2.038-.407.07-.614.1a.016.016,0,0,1-.011,0c-.043.008-.083.014-.126.019-.1.014-.2.024-.292.035-.244.03-.49.054-.737.073l.1-.016a18.381,18.381,0,0,0,14.131-11.11,18.647,18.647,0,0,0-1.987-17.96v0A18.35,18.35,0,0,0,.1.016L.032.005,0,0C.153.011.305.027.458.043S.74.073.882.092q.177.02.354.049L1.3.149c.056.008.113.016.166.027.241.038.482.081.718.13l.038.008c.147.03.295.062.439.095.078.016.155.035.233.054.048.011.1.024.147.038.129.032.252.065.378.1a.762.762,0,0,1,.075.019c.131.038.263.076.394.116s.26.081.391.124l.281.095L4.668,1c.067.022.131.046.2.07l.185.07c.08.03.158.059.238.092.1.038.19.078.289.119,0,0,.008,0,.011.005h0s0,0,.005,0l.021.008c.289.124.573.254.852.395A18.99,18.99,0,0,1,16.11,18.316Z" transform="translate(21.229 1.526)" fill="#ababab"/>
    <path id="Path-7" data-name="Path" d="M39.346,19.843A19.817,19.817,0,0,1,24.865,38.976,19.6,19.6,0,0,1,2.743,29.945a8.212,8.212,0,0,0,2.5.919v0c.027.035.07.1.094.132a18.6,18.6,0,0,0,1.538,1.778l0,0c.016.019.032.035.051.054a18.088,18.088,0,0,0,12.881,5.381c.477,0,.951-.019,1.42-.057.247-.019.493-.043.737-.073.1-.011.2-.022.292-.035.043-.005.083-.011.126-.019a.016.016,0,0,0,.011,0c.206-.027.41-.059.614-.1.062-.011.121-.022.182-.035.134-.024.265-.049.4-.078a.113.113,0,0,1,.029-.005l.051-.011c.075-.019.147-.032.222-.051q.217-.049.434-.105l.3-.081.062-.016c.177-.051.354-.1.531-.157l.289-.095c.113-.038.225-.076.338-.116l.115-.041c.021-.008.043-.014.062-.022s.048-.019.07-.027l.185-.07c.08-.03.158-.059.238-.092.11-.043.22-.089.33-.135.271-.116.536-.241.8-.368L27.7,36.4a18.5,18.5,0,0,0,0-33.116c-.279-.141-.563-.27-.852-.395l-.021-.008s0,0-.005,0h0s-.008,0-.011-.005c-.1-.041-.19-.081-.289-.119-.08-.032-.158-.062-.238-.092-.062-.027-.123-.049-.185-.07s-.129-.049-.2-.07l-.107-.041-.281-.095c-.129-.043-.26-.086-.391-.124s-.263-.081-.394-.116a.762.762,0,0,0-.075-.019c-.126-.038-.249-.07-.378-.1-.048-.014-.1-.027-.147-.038-.078-.019-.155-.038-.233-.054-.145-.035-.292-.068-.439-.095l-.038-.008c-.236-.049-.477-.092-.718-.13-.054-.011-.11-.019-.166-.027l-.064-.008q-.177-.028-.354-.049c-.142-.019-.281-.035-.423-.049s-.305-.032-.458-.043l.032.005c-.477-.041-.962-.059-1.45-.059A17.674,17.674,0,0,0,17.7,1.6h-.013a17.908,17.908,0,0,0-6.313,1.962c-.2.1-.386.208-.576.319q-.571.324-1.112.695c-.182.119-.359.246-.536.376a17.823,17.823,0,0,0-2.079,1.77L7,6.786c-.024.022-.046.043-.067.065v0q-.6.6-1.139,1.262c-.094.111-.182.222-.268.332-.155.2-.305.4-.453.605-.1.141-.2.284-.3.427A18.38,18.38,0,0,0,1.631,19.786L1.62,19.58l-.225-.1a.707.707,0,0,0-.147-.043.65.65,0,0,0-.33.008.78.78,0,0,0-.472.457,6.409,6.409,0,0,0-.182,2.662A6.439,6.439,0,0,0,.474,24.1H.468l-.04-.149A19.934,19.934,0,0,1,7.568,4.2,19.535,19.535,0,0,1,28.3,2.01,19.859,19.859,0,0,1,39.346,19.843Z" transform="translate(0 0)" fill="#ff8080"/>
    <path id="Path-8" data-name="Path" d="M.458.463C.316.45.177.436.032.425L0,.42C.153.431.305.447.458.463Z" transform="translate(21.229 1.106)" fill="#ff8080"/>
    <path id="Path-9" data-name="Path" d="M.38.422C.255.389.126.36,0,.33.078.346.155.365.233.384.281.395.332.408.38.422Z" transform="translate(23.89 1.604)" fill="#ff8080"/>
    <path id="Path-10" data-name="Path" d="M23.079,23.959v-.091a6.907,6.907,0,0,0-2.425-5.548q-2.425-2.061-7.9-3.193a31.908,31.908,0,0,1-4.58-1.268,9.885,9.885,0,0,1-2.806-1.517,4.468,4.468,0,0,1-1.392-1.857A6.485,6.485,0,0,1,3.592,8.2V8.108A5.129,5.129,0,0,1,4.131,5.8,5.667,5.667,0,0,1,5.68,3.9,7.755,7.755,0,0,1,8.1,2.6a9.9,9.9,0,0,1,3.166-.476,13.421,13.421,0,0,1,9.384,3.578L22.136,3.85a17.668,17.668,0,0,0-4.872-2.9A16.548,16.548,0,0,0,11.36,0,12.331,12.331,0,0,0,7.319.635,9.914,9.914,0,0,0,4.131,2.4,8.323,8.323,0,0,0,2.02,5.05a7.2,7.2,0,0,0-.763,3.284v.091a8.317,8.317,0,0,0,.584,3.215A6.38,6.38,0,0,0,3.7,14.108,11.961,11.961,0,0,0,7,15.965a30.341,30.341,0,0,0,4.849,1.381,27.936,27.936,0,0,1,4.4,1.2,10.116,10.116,0,0,1,2.717,1.472,4.348,4.348,0,0,1,1.392,1.812,6.294,6.294,0,0,1,.382,2.265v.091a5.494,5.494,0,0,1-.584,2.514,6.071,6.071,0,0,1-1.617,1.993,7.656,7.656,0,0,1-2.514,1.314,10.529,10.529,0,0,1-3.233.475,16.609,16.609,0,0,1-3.233-.294,14.287,14.287,0,0,1-5.456-2.31A22.321,22.321,0,0,1,1.527,25.77L0,27.537a20.911,20.911,0,0,0,5.859,3.8,17.471,17.471,0,0,0,6.8,1.268,13.251,13.251,0,0,0,4.2-.634,10.066,10.066,0,0,0,3.278-1.766,8.167,8.167,0,0,0,2.155-2.74,7.882,7.882,0,0,0,.786-3.51Z" transform="translate(42.336 3.538)" fill="#ff8080"/>
    <path id="Path-11" data-name="Path" d="M24.786,31.7V0H22.451V14.719H2.335V0H0V31.7H2.335V16.848H22.451V31.7Z" transform="translate(71.722 3.991)" fill="#ff8080"/>
  </g>
</svg>
