<svg width="47" height="48" viewBox="0 0 47 48" fill="none" xmlns="http://www.w3.org/2000/svg">
<path fill-rule="evenodd" clip-rule="evenodd" d="M46.9264 17.8717C46.9164 17.7782 46.8951 17.6862 46.8628 17.5978L46.7972 17.6308L46.835 17.5002C46.775 17.3654 46.6912 17.2426 46.5876 17.1379L46.5005 17.0437L40.154 11.9595V8.12825C40.1526 6.94131 39.1961 5.97947 38.0157 5.978L32.6768 5.99381L26.5244 1.08075C24.7243 -0.355845 22.1762 -0.352783 20.3795 1.08813L14.3147 5.97822H8.53156C7.35127 5.97969 6.39478 6.9414 6.39321 8.12825L6.42067 12.2886L0.535977 17.0112L0.400118 17.1463C0.307848 17.2501 0.231915 17.3674 0.174959 17.4943L0.137065 17.5935C0.103385 17.6969 0.0782812 17.803 0.0620117 17.9106V45.1165C0.0634279 46.3034 1.01996 47.2653 2.20036 47.2668H44.7957C45.976 47.2651 46.9323 46.3033 46.9338 45.1165L46.9264 17.8717ZM18.398 5.978L21.9802 3.10088C22.4 2.76326 22.9216 2.57944 23.4591 2.57968C23.9947 2.57748 24.5145 2.76163 24.9304 3.10088L28.5334 5.978H18.398ZM40.1543 15.2275V19.9473L43.4443 17.8818L40.1543 15.2275ZM23.4552 30.4377L8.95412 21.3334L8.95191 8.55959L37.5942 8.55221L37.6285 21.5358L23.4552 30.4377ZM24.5801 32.7684C24.2422 32.9819 23.851 33.0948 23.4519 33.0941C23.0504 33.0954 22.6567 32.9825 22.3163 32.7684L2.62975 20.342V44.6873L44.3753 44.6851L44.3739 20.3355L24.5801 32.7684ZM3.55881 17.8818L6.3935 15.6073V19.6757L3.55881 17.8818ZM30.8427 11.3778H15.7052C14.9982 11.3778 14.4251 11.9541 14.4251 12.665C14.4251 13.3759 14.9982 13.9522 15.7052 13.9522H30.8427C31.5497 13.9522 32.1228 13.3759 32.1228 12.665C32.1228 11.9541 31.5497 11.3778 30.8427 11.3778ZM30.8427 17.6726H15.7052C14.9982 17.6726 14.4251 18.2489 14.4251 18.9598C14.4251 19.6707 14.9982 20.247 15.7052 20.247H30.8427C31.5497 20.247 32.1228 19.6707 32.1228 18.9598C32.1228 18.2489 31.5497 17.6726 30.8427 17.6726Z" fill="#71C9D9"/>
</svg>
