<svg xmlns="http://www.w3.org/2000/svg" width="47.943" height="48" viewBox="0 0 47.943 48">
  <g id="advisors" transform="translate(-0.059)">
    <path id="Path" d="M15.693,0A15.774,15.774,0,0,0,0,14.324a1.317,1.317,0,0,0,1.313,1.428h0a1.31,1.31,0,0,0,1.3-1.2,13.128,13.128,0,0,1,26.146,0,1.31,1.31,0,0,0,1.3,1.2h0a1.317,1.317,0,0,0,1.313-1.428A15.774,15.774,0,0,0,15.693,0Z" transform="translate(0.059 32.248)" fill="#fff"/>
    <path id="Shape" d="M0,7.7a7.7,7.7,0,1,1,7.7,7.7A7.7,7.7,0,0,1,0,7.7Z" transform="translate(8.05 16.058)" fill="#fff"/>
    <path id="Shape-2" data-name="Shape" d="M1.388,29.153A2.24,2.24,0,0,1,0,27.075V5.017A5.022,5.022,0,0,1,5.017,0h12.69a5.022,5.022,0,0,1,5.017,5.017v12.69a5.016,5.016,0,0,1-5.017,5.01H9.78L3.84,28.665a2.24,2.24,0,0,1-1.59.66H2.243A2.214,2.214,0,0,1,1.388,29.153Z" transform="translate(25.278)" fill="#fff"/>
    <path id="Path-2" data-name="Path" d="M7,6.15H3.116a.866.866,0,0,1,0-1.733H8.231a1.125,1.125,0,0,0,0-2.25H6.371V1.125a1.125,1.125,0,0,0-2.25,0V2.168H3.116a3.116,3.116,0,1,0,0,6.232H7a.863.863,0,0,1,0,1.725H1.886a1.125,1.125,0,0,0,0,2.25H4.121v.892a1.125,1.125,0,0,0,2.25,0v-.892H7A3.112,3.112,0,0,0,7,6.15Z" transform="translate(31.581 3.473)" fill="#fff"/>
  </g>
</svg>
