<svg width="49" height="48" viewBox="0 0 49 48" fill="none" xmlns="http://www.w3.org/2000/svg">
<path d="M15.7518 32.2478C7.60906 32.2578 0.812056 38.4639 0.063727 46.5722C0.0328047 46.9396 0.157285 47.3032 0.406918 47.5745C0.656552 47.8459 1.00849 48.0002 1.3772 48C2.05644 47.998 2.62152 47.4772 2.6789 46.8004C3.29922 40.0436 8.96649 34.8727 15.7518 34.8727C22.5371 34.8727 28.2043 40.0436 28.8247 46.8004C28.8821 47.4772 29.4472 47.998 30.1264 48C30.4952 48.0003 30.8471 47.846 31.0968 47.5746C31.3464 47.3032 31.4709 46.9396 31.4399 46.5722C30.6916 38.4639 23.8945 32.2576 15.7518 32.2478V32.2478Z" fill="white"/>
<path fill-rule="evenodd" clip-rule="evenodd" d="M23.4475 23.755C23.4482 28.0059 20.0035 31.4529 15.7525 31.455C11.5001 31.4513 8.05373 28.0049 8.05005 23.7525C8.05212 19.5016 11.4991 16.0568 15.75 16.0575C20.001 16.0582 23.4469 19.5041 23.4475 23.755ZM20.8225 23.76C20.8246 20.9578 18.5547 18.6846 15.7525 18.6825C12.9518 18.6837 10.6804 20.9517 10.675 23.7525C10.673 26.5546 12.9429 28.8279 15.745 28.83C18.5472 28.8321 20.8205 26.5621 20.8225 23.76Z" fill="white"/>
<path fill-rule="evenodd" clip-rule="evenodd" d="M30.2951 0H42.9851C45.7551 0.0025223 48.0001 2.24746 48.0026 5.0175V17.7075C47.9995 20.4761 45.7537 22.7185 42.9851 22.7175H35.0576L29.1176 28.665C28.6969 29.0883 28.1244 29.3259 27.5276 29.325C27.2315 29.3258 26.9382 29.2671 26.6651 29.1525C25.8235 28.8062 25.275 27.9851 25.2776 27.075V5.0175C25.2801 2.24746 27.5251 0.0025223 30.2951 0ZM44.6756 19.3958C45.1243 18.9484 45.3769 18.3411 45.3776 17.7075V5.0175C45.3767 3.69655 44.3061 2.62595 42.9851 2.625H30.2951C28.9742 2.62595 27.9036 3.69655 27.9026 5.0175V26.1675L33.9701 20.0925H42.9851C43.6187 20.0937 44.2268 19.8431 44.6756 19.3958Z" fill="white"/>
<path d="M38.5825 9.62247H34.6975C34.2191 9.62247 33.8313 9.23464 33.8313 8.75622C33.8313 8.27781 34.2191 7.88997 34.6975 7.88997H39.8125C40.4339 7.88997 40.9375 7.38629 40.9375 6.76497C40.9375 6.14365 40.4339 5.63997 39.8125 5.63997H37.9525V4.59747C37.9525 3.97615 37.4489 3.47247 36.8275 3.47247C36.2062 3.47247 35.7025 3.97615 35.7025 4.59747V5.63997H34.6975C32.9765 5.63997 31.5813 7.03517 31.5813 8.75622C31.5813 10.4773 32.9765 11.8725 34.6975 11.8725H38.5825C39.0589 11.8725 39.445 12.2586 39.445 12.735C39.445 13.2113 39.0589 13.5975 38.5825 13.5975H33.4675C32.8462 13.5975 32.3425 14.1012 32.3425 14.7225C32.3425 15.3438 32.8462 15.8475 33.4675 15.8475H35.7025V16.74C35.7025 17.3613 36.2062 17.865 36.8275 17.865C37.4489 17.865 37.9525 17.3613 37.9525 16.74V15.8475H38.5825C40.3015 15.8475 41.695 14.454 41.695 12.735C41.695 11.016 40.3015 9.62247 38.5825 9.62247Z" fill="white"/>
</svg>
