<svg xmlns="http://www.w3.org/2000/svg" width="601.021" height="779.771" viewBox="0 0 601.021 779.771">
  <g id="OSH_pattern_1" transform="translate(-0.815 0)">
    <g id="Group" transform="translate(82.723)">
      <path id="Path" d="M387.4,0A375.493,375.493,0,0,0,219.9,39.235l-6.8,3.35A383.4,383.4,0,0,0,39.029,554.806l3.333,6.826c64.516,132.121,195.617,214.2,342.135,214.2a374.158,374.158,0,0,0,129.6-22.968V739.541a361.876,361.876,0,0,1-129.6,23.806c-105.144,0-202.076-43.689-270.6-118.417a374.15,374.15,0,0,1-60.379-88.8L50.18,549.3A370.258,370.258,0,0,1,24.741,292.159a.263.263,0,0,1,.021-.068A373.952,373.952,0,0,1,42.01,241.4a.322.322,0,0,1,.026-.063A367.764,367.764,0,0,1,218.58,53.793l6.8-3.35A363.327,363.327,0,0,1,387.4,12.485a369.659,369.659,0,0,1,126.694,22.2V21.431A382.314,382.314,0,0,0,387.4,0Z" transform="translate(5.018 1.334)" fill="#ff8080"/>
      <path id="Path-2" data-name="Path" d="M174.091,82.022a334.348,334.348,0,0,1,35.164-20.065l6.2-3.053a324.7,324.7,0,0,1,132.78-33.717q6.011-.219,12.063-.219A328.449,328.449,0,0,1,518.647,65.245V37.067A353.67,353.67,0,0,0,360.3,0q-14.954,0-29.7,1.24-5.778.485-11.524,1.162A350.107,350.107,0,0,0,204.511,36.489l-6.2,3.059a359.64,359.64,0,0,0-40.623,23.436c-2.115,1.417-4.209,2.845-6.288,4.3C89.958,110.253,43.846,171.506,19.2,244.04a355,355,0,0,0-3.017,221.083q1.127,3.6,2.333,7.19a362.376,362.376,0,0,0,17.9,43.622l3.038,6.232a358.519,358.519,0,0,0,70.685,98.451q4.1,4.025,8.31,7.909c63.987,58.961,148.41,92.85,239.2,92.85a349.274,349.274,0,0,0,155.787-36.489l5.21-2.569V654.3q-4.922,2.642-9.959,5.122l-6.2,3.053A324.737,324.737,0,0,1,357.65,696.409c-79.151,0-153.1-27.693-211.055-76.333A331.823,331.823,0,0,1,61.752,511.168l-3.038-6.232a337,337,0,0,1-15.552-37.359.17.17,0,0,1-.016-.047,330.065,330.065,0,0,1-.441-215.42C66.739,181.375,112.732,122.174,174.091,82.022Z" transform="translate(0.465 17.736)" fill="#ababab"/>
      <path id="Path-3" data-name="Path" d="M21.636,250.8q2.8-11.317,6.48-22.509c.337-1.032.684-2.058,1.032-3.085q.622-1.837,1.27-3.663,3.857-10.919,8.466-21.436a.321.321,0,0,1,.026-.063,306.738,306.738,0,0,1,127.5-142.911q9.153-5.322,18.746-10.051l5.708-2.814a307.778,307.778,0,0,1,320.1,29.189V58.039A318.563,318.563,0,0,0,340.557.3Q333.582,0,326.549,0A316.505,316.505,0,0,0,185.4,33.06l-5.708,2.819q-10.918,5.385-21.317,11.515-1.6.938-3.193,1.907A319.092,319.092,0,0,0,28.023,193.9q-4.673,10.575-8.637,21.566c-.228.63-.451,1.261-.674,1.9-.451,1.266-.886,2.537-1.322,3.809q-.6,1.751-1.172,3.507-3.857,11.794-6.791,23.739A321.034,321.034,0,0,0,21.776,441.865c.456,1.167.912,2.334,1.379,3.5q4.487,11.208,9.834,22.165l2.8,5.737a319,319,0,0,0,288.319,180.5,316.441,316.441,0,0,0,141.153-33.065l5.708-2.814a321.349,321.349,0,0,0,40-23.436V579.18a309.01,309.01,0,0,1-45.47,27.506l-5.7,2.814a304.234,304.234,0,0,1-135.683,31.789c-118.7,0-224.907-66.49-277.168-173.523l-2.8-5.737q-4.674-9.566-8.657-19.341a.17.17,0,0,1-.016-.047A308.653,308.653,0,0,1,21.615,250.866.263.263,0,0,1,21.636,250.8Z" transform="translate(8.144 42.626)" fill="#05385c"/>
      <path id="Path-4" data-name="Path" d="M389.486,0A377.436,377.436,0,0,0,221.138,39.438L214.31,42.8a386,386,0,0,0-67.238,42.22A381.677,381.677,0,0,0,22.737,258.088c-.228.63-.451,1.261-.674,1.9q-.669,1.9-1.317,3.809c-.4,1.167-.788,2.339-1.177,3.507A383.772,383.772,0,0,0,11.85,482.86a389.673,389.673,0,0,0,27.5,74.764l3.354,6.862c64.843,132.788,196.6,215.284,343.867,215.284A375.954,375.954,0,0,0,514.319,757.59V744.309a363.836,363.836,0,0,1-127.752,22.978c-110.25,0-211.522-47.785-280.76-128.932a376.706,376.706,0,0,1-51.955-79.37L50.5,552.123a377.175,377.175,0,0,1-25.371-67.631,371.243,371.243,0,0,1,6.34-213.575c.337-1.032.684-2.058,1.032-3.085q.622-1.837,1.27-3.663c24.36-69.382,67.611-128.7,124.761-172.241a373.47,373.47,0,0,1,61.25-37.916l6.833-3.371A370.066,370.066,0,0,1,514.319,33.894V20.665A384.5,384.5,0,0,0,389.486,0Z" transform="translate(4.793 0)" fill="#ff8080"/>
    </g>
    <g id="Group-2" data-name="Group" transform="translate(0 131.106)">
      <path id="Path-5" data-name="Path" d="M35.436,70.826V63.034A27.62,27.62,0,1,0,7.8,35.413H0A35.435,35.435,0,1,1,35.436,70.826Z" transform="translate(136.867 280.558)" fill="#ff8080"/>
      <path id="Path-6" data-name="Path" d="M19.061,0A19.049,19.049,0,1,1,0,19.049,19.055,19.055,0,0,1,19.061,0" transform="translate(129.851 166.799)" fill="#ababab"/>
      <path id="Path-7" data-name="Path" d="M19.061,0A19.049,19.049,0,1,1,0,19.049,19.055,19.055,0,0,1,19.061,0" transform="translate(124.393 462.887)" fill="#05385c"/>
      <path id="Shape" d="M0,22.945A22.96,22.96,0,1,1,22.959,45.891,22.952,22.952,0,0,1,0,22.945Z" transform="translate(255.379 57.714)" fill="#05385c"/>
      <path id="Shape-2" data-name="Shape" d="M0,22.945A22.96,22.96,0,1,1,22.959,45.891,22.952,22.952,0,0,1,0,22.945Z" transform="translate(25.375 386.527)" fill="#05385c"/>
      <path id="Path-8" data-name="Path" d="M11.655,0A11.646,11.646,0,1,1,0,11.647,11.655,11.655,0,0,1,11.655,0" transform="translate(30 509.247)" fill="#ff8080"/>
      <path id="Path-9" data-name="Path" d="M11.655,0A11.646,11.646,0,1,1,0,11.647,11.655,11.655,0,0,1,11.655,0" transform="translate(0.815 63.168)" fill="#05385c"/>
      <path id="Shape-3" data-name="Shape" d="M0,12.816A12.824,12.824,0,1,1,12.823,25.632,12.82,12.82,0,0,1,0,12.816Z" transform="translate(97.105 0.054)" fill="#ababab"/>
    </g>
  </g>
</svg>
