<svg width="350" height="780" viewBox="0 0 350 780" fill="none" xmlns="http://www.w3.org/2000/svg">
  <defs>
    <style>
      .cls-1 {
        fill: #ff8080;
      }
      .cls-2 {
        fill: #ababab;
      }
      .cls-3 {
        fill: #05385c;
      }
      .c-1, .c-2, .c-3, .c-4, .c-5, .c-6, .c-7, .c-8 {
        animation-iteration-count: infinite;
        animation-timing-function: linear;
      }
      .c-1 {
        animation-name: transform1;
        animation-duration: 9s;
      }
      .c-2 {
        animation-name: transform2;
        animation-duration: 6s;
      }
      .c-3 {
        animation-name: transform3;
        animation-duration: 5s;
      }
      .c-4 {
        animation-name: transform4;
        animation-duration: 8s;
      }
      .c-5 {
        animation-name: transform5;
        animation-duration: 10s;
      }
      .c-6 {
        animation-name: transform6;
        animation-duration: 4s;
      }
      .c-7 {
        animation-name: transform7;
        animation-duration: 7s;
      }
      .c-8 {
        animation-name: transform8;
        animation-duration: 5s;
      }
      @keyframes transform1 {
        50% {
          transform: translateX(20px);
        }
      }
      @keyframes transform2 {
        50% {
          transform: translateY(10px);
        }
      }
      @keyframes transform3 {
        50% {
          transform: translate(8px, 16px);
        }
      }
      @keyframes transform4 {
        50% {
          transform: translate(12px, 6px);
        }
      }
      @keyframes transform5 {
        50% {
          transform: translate(18px, 12px);
        }
      }
      @keyframes transform6 {
        50% {
          transform: translateX(8px);
        }
      }
      @keyframes transform7 {
        50% {
          transform: translateY(12px);
        }
      }
      @keyframes transform8 {
        50% {
          transform: translate(13px, -5px);
        }
      }
    </style>
  </defs>
  <path class="cls-1" d="M475.142 1.33389C416.774 1.33389 360.418 14.5319 307.644 40.5684L300.847 43.9187C210.139 88.5965 140.824 167.686 108.172 263.763C75.5207 359.841 82.2114 465.023 126.77 556.14L130.104 562.965C194.62 695.086 325.721 777.166 472.239 777.166C516.446 777.229 560.317 769.454 601.836 754.198V740.875C560.44 756.678 516.52 764.746 472.239 764.681C367.095 764.681 270.163 720.992 201.634 646.264C177.357 619.743 157.02 589.836 141.255 557.468L137.921 550.637C98.8425 470.817 89.8072 379.484 112.483 293.493C112.487 293.469 112.494 293.446 112.504 293.425C117.035 276.133 122.799 259.192 129.751 242.733C129.758 242.711 129.766 242.69 129.777 242.67C164.201 160.805 226.899 94.2004 306.322 55.1263L313.118 51.776C363.497 26.7507 418.946 13.7604 475.142 13.8181C518.337 13.7563 561.211 21.2695 601.836 36.0197V22.7644C561.102 8.52181 518.271 1.27698 475.142 1.33389Z"/>
  <path class="cls-2" d="M257.28 99.7587C268.588 92.3643 280.331 85.6636 292.444 79.6934L298.644 76.6401C340.64 55.9182 385.255 44.6012 431.424 42.9234C435.432 42.7775 439.453 42.7046 443.488 42.7046C500.28 42.7046 554.391 56.9603 601.836 82.9812V54.8032C553.748 30.7936 499.844 17.7363 443.488 17.7363C433.519 17.7363 423.619 18.1496 413.788 18.9763C409.936 19.2994 406.095 19.6867 402.264 20.1383C362.42 24.8449 323.672 36.3737 287.7 54.2248L281.5 57.2834C267.468 64.2012 253.898 72.0299 240.878 80.7198C238.762 82.1371 236.668 83.5647 234.589 85.0236C173.147 127.989 127.035 189.242 102.384 261.777C77.7339 334.301 76.9304 411.097 99.3672 482.86C100.119 485.262 100.896 487.659 101.7 490.051C106.715 504.968 112.695 519.539 119.601 533.672L122.639 539.904C140.461 576.52 164.366 609.815 193.324 638.355C196.056 641.038 198.826 643.675 201.634 646.264C265.621 705.225 350.044 739.114 440.839 739.114C495.127 739.114 547.543 726.838 596.626 702.625L601.836 700.057V672.035C598.554 673.796 595.235 675.503 591.877 677.157L585.682 680.21C540.031 702.729 491.301 714.146 440.839 714.146C361.688 714.146 287.742 686.452 229.784 637.813C194.21 607.898 165.302 570.791 144.941 528.905L141.903 522.673C135.976 510.546 130.783 498.07 126.35 485.314C126.343 485.299 126.338 485.284 126.335 485.267C102.203 415.75 101.845 340.61 125.894 269.848C149.928 199.111 195.921 139.91 257.28 99.7587Z"/>
  <path class="cls-3" d="M112.504 293.425C114.37 285.88 116.53 278.377 118.984 270.916C119.321 269.884 119.668 268.858 120.015 267.831C120.43 266.607 120.854 265.386 121.286 264.168C123.857 256.889 126.679 249.744 129.751 242.733C129.758 242.711 129.766 242.69 129.777 242.67C156.003 182.57 200.685 132.488 257.28 99.7587C263.382 96.2104 269.63 92.8601 276.026 89.7078L281.733 86.8942C324.497 65.8024 370.143 55.1106 417.417 55.1106C485.645 55.1106 549.741 77.0726 601.836 116.083V100.665C552.68 66.0317 493.965 45.586 431.424 42.9235C426.774 42.7255 422.105 42.6265 417.417 42.6265C368.23 42.6265 320.739 53.7507 276.264 75.6866L270.557 78.5054C263.278 82.0954 256.172 85.9337 249.24 90.0205C248.172 90.6457 247.107 91.2814 246.046 91.9275C189.85 125.806 145.44 176.307 118.891 236.522C115.775 243.572 112.896 250.76 110.254 258.088C110.026 258.718 109.803 259.349 109.58 259.984C109.129 261.251 108.693 262.522 108.258 263.793C107.859 264.96 107.468 266.129 107.086 267.3C104.515 275.162 102.251 283.075 100.295 291.038C84.3794 355.252 88.6942 422.848 112.644 484.491C113.1 485.658 113.556 486.825 114.023 487.992C117.014 495.464 120.292 502.853 123.857 510.158L126.661 515.894C151.047 565.831 186.714 607.28 229.784 637.813C282.739 675.359 346.882 696.399 414.98 696.399C464.167 696.399 511.659 685.275 556.133 663.333L561.841 660.52C575.715 653.683 589.082 645.851 601.836 637.083V621.806C587.491 632.267 572.279 641.47 556.366 649.312L550.664 652.126C507.9 673.218 462.254 683.915 414.98 683.915C296.28 683.915 190.073 617.424 137.812 510.392L135.008 504.655C131.892 498.278 129.006 491.831 126.35 485.314C126.343 485.299 126.338 485.284 126.335 485.267C101.419 424.479 96.5636 357.26 112.483 293.493C112.487 293.469 112.494 293.446 112.504 293.425Z"/>
  <path class="cls-1" d="M477.003 7.09784e-06C418.339 7.09784e-06 361.698 13.271 308.654 39.4377L301.827 42.8036C278.033 54.522 255.502 68.6698 234.589 85.0237C177.989 129.328 134.982 188.8 110.254 258.088C110.025 258.718 109.803 259.349 109.58 259.984C109.134 261.251 108.695 262.52 108.263 263.793C107.864 264.96 107.475 266.133 107.086 267.3C83.7991 337.979 81.3833 412.275 99.367 482.86C105.957 508.663 115.171 533.717 126.863 557.624L130.218 564.487C195.06 697.274 326.819 779.771 474.084 779.771C517.622 779.833 560.842 772.329 601.836 757.59V744.309C560.957 759.567 517.691 767.348 474.084 767.287C363.834 767.287 262.562 719.502 193.324 638.355C172.74 614.209 155.283 587.54 141.369 558.984L138.014 552.122C127.416 530.45 118.92 507.801 112.643 484.491C93.8874 414.697 95.8366 340.96 118.984 270.916C119.321 269.884 119.668 268.858 120.015 267.831C120.43 266.607 120.853 265.386 121.285 264.168C145.645 194.786 188.896 135.471 246.046 91.9275C265.202 77.339 285.714 64.6414 307.296 54.0112L314.129 50.6401C403.89 6.40691 507.594 0.370743 601.836 33.8938V20.6645C561.638 6.92768 519.461 -0.0541165 477.003 7.09784e-06Z"/>
  <g class="c-1">
    <path class="cls-1" d="M172.303 482.49V474.698C187.567 474.697 199.94 462.331 199.94 447.077C199.939 431.823 187.565 419.457 172.302 419.458C157.038 419.458 144.664 431.824 144.664 447.078H136.867C136.867 427.52 152.731 411.665 172.302 411.664C191.872 411.664 207.738 427.519 207.738 447.076C207.738 466.634 191.874 482.49 172.304 482.49H172.303Z"/>
  </g>
  <g class="c-2">
    <path class="cls-2" d="M148.912 297.905C159.439 297.905 167.973 306.434 167.973 316.954C167.973 327.475 159.439 336.004 148.912 336.004C138.385 336.004 129.851 327.475 129.851 316.954C129.852 306.435 138.385 297.907 148.912 297.905"/>
  </g>
  <g class="c-3">
    <path class="cls-3" d="M143.454 593.993C153.982 593.993 162.516 602.522 162.516 613.043C162.516 623.563 153.982 632.092 143.454 632.092C132.927 632.092 124.393 623.563 124.393 613.043C124.395 602.523 132.928 593.995 143.454 593.993"/>
  </g>
  <g class="c-4">
    <path class="cls-3" d="M255.379 211.765C255.379 224.437 265.658 234.71 278.338 234.711C291.013 234.697 301.285 224.432 301.299 211.765C301.299 199.093 291.019 188.82 278.339 188.82C265.659 188.82 255.379 199.093 255.379 211.765ZM263.176 211.766C263.176 203.397 269.964 196.612 278.338 196.612C286.709 196.621 293.492 203.4 293.502 211.765C293.502 220.134 286.713 226.918 278.339 226.918C269.965 226.918 263.176 220.134 263.176 211.766Z"/>
  </g>
  <g class="c-5">
    <path class="cls-3" d="M25.375 540.578C25.3747 553.251 35.6537 563.524 48.334 563.524C61.0089 563.511 71.2806 553.246 71.2949 540.579C71.2949 527.907 61.0156 517.634 48.3353 517.634C35.655 517.633 25.3753 527.906 25.375 540.578ZM33.1721 540.58C33.1718 532.211 39.96 525.426 48.334 525.426V525.426C56.7046 525.435 63.4882 532.214 63.4978 540.579C63.4978 548.948 56.7094 555.732 48.3353 555.732C39.9612 555.732 33.1725 548.948 33.1721 540.58Z"/>
  </g>
  <g class="c-6">
    <path class="cls-1" d="M41.6546 640.353C46.3685 640.353 50.6183 643.191 52.4222 647.543C54.2262 651.895 53.229 656.905 49.8958 660.236C46.5626 663.567 41.5497 664.564 37.1946 662.761C32.8395 660.958 30 656.711 30 652C30.0009 645.568 35.2183 640.354 41.6546 640.353"/>
  </g>
  <g class="c-7">
    <path class="cls-3" d="M12.4691 194.274C17.183 194.274 21.4327 197.112 23.2366 201.464C25.0405 205.817 24.0434 210.826 20.7102 214.157C17.377 217.488 12.3641 218.485 8.00906 216.682C3.65402 214.879 0.814453 210.632 0.814453 205.921C0.815544 199.489 6.03287 194.275 12.4691 194.274"/>
  </g>
  <g class="c-8">
    <path class="cls-2" d="M97.105 143.976C97.1048 151.054 102.846 156.792 109.929 156.793C117.008 156.785 122.745 151.052 122.753 143.977C122.753 136.899 117.012 131.161 109.929 131.161C102.847 131.16 97.1052 136.898 97.105 143.976ZM104.902 143.977C104.902 141.202 107.152 138.953 109.929 138.953C112.704 138.955 114.953 141.203 114.956 143.977C114.956 146.751 112.706 149 109.929 149C107.153 149.001 104.902 146.751 104.902 143.977Z"/>
  </g>
</svg>