<svg width="14" height="14" viewBox="0 0 14 14" fill="none" xmlns="http://www.w3.org/2000/svg">
<path fill-rule="evenodd" clip-rule="evenodd" d="M13.4467 1.08811L12.9123 0.553865L12.913 0.553109C12.1751 -0.18437 10.9789 -0.18437 10.2409 0.553109L0.973646 9.81736L0.0302856 13.0326C-0.0469236 13.2971 0.0259843 13.5827 0.220554 13.7778C0.415123 13.9729 0.700511 14.0467 0.965331 13.9704L4.15522 13.0485L13.4467 3.75933C14.1844 3.02162 14.1844 1.82581 13.4467 1.08811ZM10.3128 2.6183L11.3816 3.68678L12.3779 2.69084C12.5254 2.5433 12.5254 2.30414 12.3779 2.1566L11.8427 1.62235C11.6951 1.47486 11.4559 1.47486 11.3083 1.62235L10.3135 2.6183H10.3128ZM9.14716 3.78351L2.31536 10.6131L1.86863 12.1364L3.36153 11.705L10.216 4.85275L9.14716 3.78351Z" fill="white"/>
</svg>
