<svg width="4" height="16" viewBox="0 0 4 16" fill="none" xmlns="http://www.w3.org/2000/svg">
<path fill-rule="evenodd" clip-rule="evenodd" d="M2 3.80952C0.895431 3.80952 0 2.95673 0 1.90476C0 0.852791 0.895431 0 2 0C3.10457 0 4 0.852791 4 1.90476C4 2.95673 3.10457 3.80952 2 3.80952ZM2 9.90476C0.895431 9.90476 0 9.05197 0 8C0 6.94803 0.895431 6.09524 2 6.09524C3.10457 6.09524 4 6.94803 4 8C4 9.05197 3.10457 9.90476 2 9.90476ZM0 14.0952C0 15.1472 0.895431 16 2 16C3.10457 16 4 15.1472 4 14.0952C4 13.0433 3.10457 12.1905 2 12.1905C0.895431 12.1905 0 13.0433 0 14.0952Z" fill="#B8B8B8"/>
</svg>
