<svg width="48" height="48" viewBox="0 0 48 48" fill="none" xmlns="http://www.w3.org/2000/svg">
<path fill-rule="evenodd" clip-rule="evenodd" d="M41.8432 0.82282C44.3394 1.69693 46.3019 3.65939 47.1757 6.15512C50.3231 15.2479 44.3935 24.6191 30.4784 32.5618C30.4662 33.1262 30.4814 33.7075 30.4971 34.3123L30.4972 34.3124L30.4982 34.3543C30.5804 37.3898 30.6727 40.8312 27.382 44.1218C25.7589 45.7524 23.8118 47.0246 21.6665 47.8563C21.0821 48.0856 20.4254 48.0387 19.8796 47.7286C19.3338 47.4186 18.9573 46.8787 18.8552 46.2594V46.2579C18.6017 44.7182 18.2078 43.2048 17.6785 41.7367C15.4194 44.46 11.7809 46.9375 6.00846 46.9381C4.81994 46.9337 3.63353 46.8376 2.45978 46.6508L1.51067 46.5027L1.36332 45.5544C0.137213 37.6674 3.04041 33.02 6.28807 30.33C4.80904 29.793 3.2832 29.395 1.73031 29.1411C1.1164 29.0397 0.581206 28.6664 0.274056 28.1254C-0.0382662 27.578 -0.0862479 26.9187 0.143519 26.3319C0.975243 24.1867 2.24758 22.2396 3.87843 20.6164C7.16572 17.3292 10.6026 17.4203 13.6406 17.5009L13.6456 17.501C14.2658 17.5183 14.8632 17.5337 15.4372 17.5216C23.3827 3.60551 32.7541 -2.3206 41.8432 0.82282ZM9.0304 31.5622C4.07502 34.9016 3.383 40.0729 3.83151 44.183C7.94077 44.636 13.1123 43.9407 16.4512 38.9831C14.7725 35.8255 12.1884 33.2413 9.0304 31.5622ZM28.9356 30.4175L27.9379 30.9898L27.8881 31.6861C27.8235 32.6058 27.8485 33.5306 27.8731 34.4247L27.8731 34.4257C27.95 37.2951 28.0165 39.7733 25.5236 42.2654C24.3156 43.4796 22.8926 44.4589 21.3269 45.1536C18.7912 31.8356 8.98626 27.8518 2.84659 26.6726C3.54148 25.1066 4.52107 23.6831 5.7356 22.4745C8.22721 19.9821 10.7115 20.0485 13.5748 20.1269L13.6046 20.1277L13.6047 20.1277C14.4887 20.1508 15.4045 20.1749 16.3135 20.1107L17.0092 20.0616L17.5846 19.0602C21.8001 11.6115 30.4383 -0.340355 40.9841 3.30466C42.7202 3.91306 44.0852 5.27806 44.6933 7.01392C48.3417 17.5567 36.3864 26.2026 28.9356 30.4175ZM33.4388 11.0971C34.3746 10.1008 35.9411 10.0516 36.9377 10.9872C36.976 11.023 37.0131 11.06 37.049 11.0981C37.9369 12.0753 37.9012 13.5773 36.9677 14.5113C36.0343 15.4452 34.5319 15.4821 33.5537 14.5951H33.5488C32.5522 13.6595 32.503 12.0935 33.4388 11.0971Z" fill="#71C9D9"/>
</svg>
