<svg width="16" height="16" viewBox="0 0 16 16" fill="none" xmlns="http://www.w3.org/2000/svg">
<path opacity="0.5" fill-rule="evenodd" clip-rule="evenodd" d="M12.1625 10.9239L15.7445 14.5091H15.7444C16.0855 14.8504 16.0852 15.4035 15.7437 15.7445C15.4022 16.0855 14.8488 16.0851 14.5077 15.7438L10.9264 12.159C8.09126 14.3409 4.04846 13.9476 1.68735 11.2602C-0.67376 8.57285 -0.541962 4.51473 1.98855 1.9861C4.51907 -0.542523 8.57887 -0.672873 11.2665 1.68821C13.9541 4.04929 14.3462 8.0906 12.1625 10.9239ZM5.49394 1.92966C3.29683 2.51958 1.76933 4.51014 1.76868 6.78421C1.76326 8.816 2.98289 10.651 4.85878 11.4333C6.73467 12.2157 8.89734 11.7914 10.3382 10.3582C10.3401 10.3562 10.3417 10.354 10.3433 10.3519C10.3451 10.3495 10.3468 10.3471 10.349 10.345C10.3515 10.3424 10.3543 10.3403 10.3571 10.3382C10.3595 10.3364 10.3619 10.3346 10.3642 10.3325C11.969 8.7206 12.2917 6.23271 11.1512 4.26502C10.0108 2.29734 7.69105 1.33975 5.49394 1.92966Z" fill="#797676"/>
</svg>
