<svg width="13" height="13" viewBox="0 0 13 13" fill="none" xmlns="http://www.w3.org/2000/svg">
<path fill-rule="evenodd" clip-rule="evenodd" d="M9.70596 6.25035C9.97936 6.52304 10.4219 6.52304 10.6953 6.25035V6.25107L12.1807 4.76851C12.7052 4.24505 13 3.53446 13 2.79344C13 2.05242 12.7052 1.34184 12.1807 0.818382C11.0873 -0.272794 9.31685 -0.272794 8.2234 0.818382L4.76072 4.27528C4.36723 4.66789 4.14609 5.20091 4.14609 5.75676C4.14609 6.31261 4.36723 6.84563 4.76072 7.23824C5.03412 7.51093 5.47665 7.51093 5.75005 7.23824C5.88129 7.10736 5.95505 6.92964 5.95505 6.74429C5.95505 6.55895 5.88129 6.38122 5.75005 6.25035C5.61904 6.1195 5.54542 5.94193 5.54542 5.75676C5.54542 5.57159 5.61904 5.39402 5.75005 5.26318L9.21129 1.80627C9.7581 1.26088 10.6431 1.26088 11.19 1.80627C11.4522 2.068 11.5996 2.4233 11.5996 2.79381C11.5996 3.16432 11.4522 3.51961 11.19 3.78134L9.70596 5.26318C9.57494 5.39402 9.50132 5.57159 9.50132 5.75676C9.50132 5.94193 9.57494 6.1195 9.70596 6.25035ZM3.29332 6.74862C3.01992 6.47593 2.57739 6.47593 2.30399 6.74862V6.7479L0.819258 8.23046C0.294753 8.75392 0 9.46451 0 10.2055C0 10.9465 0.294753 11.6571 0.819258 12.1806C1.91272 13.2718 3.68315 13.2718 4.7766 12.1806L8.23928 8.72369C8.63277 8.33108 8.85391 7.79806 8.85391 7.24221C8.85391 6.68636 8.63277 6.15334 8.23928 5.76073C7.96588 5.48804 7.52335 5.48804 7.24995 5.76073C7.11871 5.89161 7.04495 6.06933 7.04495 6.25468C7.04495 6.44002 7.11871 6.61775 7.24995 6.74862C7.38096 6.87947 7.45458 7.05704 7.45458 7.24221C7.45458 7.42738 7.38096 7.60495 7.24995 7.73579L3.78799 11.1927C3.24118 11.7381 2.35613 11.7381 1.80932 11.1927C1.54706 10.931 1.39969 10.5757 1.39969 10.2052C1.39969 9.83465 1.54706 9.47936 1.80932 9.21763L3.29332 7.73579C3.42434 7.60495 3.49796 7.42738 3.49796 7.24221C3.49796 7.05704 3.42434 6.87947 3.29332 6.74862Z" fill="#FF8080"/>
</svg>
