<svg width="16" height="16" viewBox="0 0 16 16" fill="none" xmlns="http://www.w3.org/2000/svg">
<path fill-rule="evenodd" clip-rule="evenodd" d="M11.0836 15.3263C11.6707 15.7474 12.3416 16 13.0126 16C13.8513 16 14.6899 15.5789 15.277 14.9053C16.3673 13.7263 16.1996 11.7895 14.9416 10.7789C14.3545 10.3579 13.6835 10.1053 13.0126 10.1053C12.1739 10.1053 11.3352 10.5263 10.832 11.2L10.5804 11.4526L5.79982 9.01053L5.88368 8.67368C5.96755 8.33684 5.96755 7.91579 5.88368 7.49474L5.79982 7.1579L10.5804 4.63158L10.832 4.88421C11.419 5.55789 12.1739 5.89474 13.0126 5.89474C13.2642 5.89474 13.4319 5.89474 13.6835 5.81053C15.277 5.47368 16.1996 3.87368 15.8641 2.27368C15.5286 0.926316 14.3545 0 13.0126 0C12.761 0 12.5932 0 12.3416 0.0842105C10.7481 0.421053 9.82553 2.02105 10.161 3.62105L10.2449 3.9579L5.46434 6.4L5.21273 6.14737L4.87725 5.81053C4.37404 5.30526 3.70309 5.05263 2.94826 5.05263C2.10957 5.05263 1.35475 5.38947 0.767666 6.06316C0.264451 6.65263 -0.0710251 7.41053 0.012844 8.16842C0.0967132 8.92632 0.43219 9.68421 1.01927 10.1895C1.52249 10.6947 2.19344 10.9474 2.94826 10.9474C3.78696 10.9474 4.54178 10.6105 5.12886 9.93684L5.38047 9.68421L10.161 12.1263L10.0771 12.4632C9.9094 13.5579 10.2449 14.6526 11.0836 15.3263ZM10.9158 13.0526C10.9158 11.8737 11.8384 10.9474 13.0126 10.9474C14.1867 10.9474 15.1093 11.8737 15.1093 13.0526C15.1093 14.2316 14.1867 15.1579 13.0126 15.1579C11.8384 15.1579 10.9158 14.2316 10.9158 13.0526ZM2.94827 5.89474C1.7741 5.89474 0.851541 6.82105 0.851541 8C0.851541 9.17895 1.7741 10.1053 2.94827 10.1053C4.12244 10.1053 5.045 9.17895 5.045 8C5.045 6.82105 4.12244 5.89474 2.94827 5.89474ZM10.9158 2.94737C10.9158 1.76842 11.8384 0.842105 13.0126 0.842105C14.1867 0.842105 15.1093 1.76842 15.1093 2.94737C15.1093 4.12632 14.1867 5.05263 13.0126 5.05263C11.8384 5.05263 10.9158 4.12632 10.9158 2.94737Z" fill="black"/>
<mask id="mask0" mask-type="alpha" maskUnits="userSpaceOnUse" x="0" y="0" width="16" height="16">
<path fill-rule="evenodd" clip-rule="evenodd" d="M11.0836 15.3263C11.6707 15.7474 12.3416 16 13.0126 16C13.8513 16 14.6899 15.5789 15.277 14.9053C16.3673 13.7263 16.1996 11.7895 14.9416 10.7789C14.3545 10.3579 13.6835 10.1053 13.0126 10.1053C12.1739 10.1053 11.3352 10.5263 10.832 11.2L10.5804 11.4526L5.79982 9.01053L5.88368 8.67368C5.96755 8.33684 5.96755 7.91579 5.88368 7.49474L5.79982 7.1579L10.5804 4.63158L10.832 4.88421C11.419 5.55789 12.1739 5.89474 13.0126 5.89474C13.2642 5.89474 13.4319 5.89474 13.6835 5.81053C15.277 5.47368 16.1996 3.87368 15.8641 2.27368C15.5286 0.926316 14.3545 0 13.0126 0C12.761 0 12.5932 0 12.3416 0.0842105C10.7481 0.421053 9.82553 2.02105 10.161 3.62105L10.2449 3.9579L5.46434 6.4L5.21273 6.14737L4.87725 5.81053C4.37404 5.30526 3.70309 5.05263 2.94826 5.05263C2.10957 5.05263 1.35475 5.38947 0.767666 6.06316C0.264451 6.65263 -0.0710251 7.41053 0.012844 8.16842C0.0967132 8.92632 0.43219 9.68421 1.01927 10.1895C1.52249 10.6947 2.19344 10.9474 2.94826 10.9474C3.78696 10.9474 4.54178 10.6105 5.12886 9.93684L5.38047 9.68421L10.161 12.1263L10.0771 12.4632C9.9094 13.5579 10.2449 14.6526 11.0836 15.3263ZM10.9158 13.0526C10.9158 11.8737 11.8384 10.9474 13.0126 10.9474C14.1867 10.9474 15.1093 11.8737 15.1093 13.0526C15.1093 14.2316 14.1867 15.1579 13.0126 15.1579C11.8384 15.1579 10.9158 14.2316 10.9158 13.0526ZM2.94827 5.89474C1.7741 5.89474 0.851541 6.82105 0.851541 8C0.851541 9.17895 1.7741 10.1053 2.94827 10.1053C4.12244 10.1053 5.045 9.17895 5.045 8C5.045 6.82105 4.12244 5.89474 2.94827 5.89474ZM10.9158 2.94737C10.9158 1.76842 11.8384 0.842105 13.0126 0.842105C14.1867 0.842105 15.1093 1.76842 15.1093 2.94737C15.1093 4.12632 14.1867 5.05263 13.0126 5.05263C11.8384 5.05263 10.9158 4.12632 10.9158 2.94737Z" fill="white"/>
</mask>
<g mask="url(#mask0)">
<rect width="16" height="16" fill="#FF8080"/>
</g>
</svg>
