<svg width="13" height="13" viewBox="0 0 13 13" fill="none" xmlns="http://www.w3.org/2000/svg">
<path d="M10.6095 8.26233C9.85041 8.26233 9.18088 8.62089 8.74345 9.16999L4.6862 7.11268C4.73932 6.91625 4.77749 6.7133 4.77749 6.4997C4.77749 6.26717 4.73215 6.04825 4.66888 5.83523L8.70824 3.78741C9.14326 4.36136 9.83011 4.73649 10.6101 4.73649C11.9312 4.73649 13 3.67678 13 2.36796C13 1.06031 11.9312 0 10.6101 0C9.29187 0 8.22193 1.06031 8.22193 2.36793C8.22193 2.58213 8.26013 2.78566 8.31383 2.98269L4.25715 5.04001C3.81915 4.49033 3.1484 4.13059 2.38815 4.13059C1.06815 4.13059 0 5.19147 0 6.4997C0 7.80792 1.06818 8.86823 2.38815 8.86823C3.16928 8.86823 3.85555 8.49192 4.29234 7.9174L8.3299 9.96522C8.26663 10.1776 8.22071 10.3983 8.22071 10.6315C8.22071 11.9397 9.29065 13 10.6089 13C11.9301 13 12.9988 11.9397 12.9988 10.6315C12.9994 9.32206 11.9307 8.26233 10.6095 8.26233Z" fill="#FF8080"/>
</svg>
