<svg xmlns="http://www.w3.org/2000/svg" width="47.959" height="47.972" viewBox="0 0 47.959 47.972">
  <g id="rocket" transform="translate(-0.016 -0.018)">
    <path id="Combined_Shape" data-name="Combined Shape" d="M19.862,47.7a2.072,2.072,0,0,1-1.023-1.468,25.589,25.589,0,0,0-1.175-4.521A14.421,14.421,0,0,1,6,46.911a23.083,23.083,0,0,1-3.545-.287l-.949-.148-.148-.948a18.263,18.263,0,0,1,.784-9.556,13.922,13.922,0,0,1,4.137-5.66,25.386,25.386,0,0,0-4.554-1.188A2.047,2.047,0,0,1,.274,28.109a2.077,2.077,0,0,1-.131-1.792A16.33,16.33,0,0,1,3.875,20.6a10.677,10.677,0,0,1,8.3-3.139c.493,0,.983.013,1.455.025h.008c.449.013.913.025,1.357.025.154,0,.3,0,.433,0,3.251-5.7,6.76-10.089,10.429-13.057C29.507,1.5,33.263,0,37.019,0a14.633,14.633,0,0,1,4.788.823,8.642,8.642,0,0,1,5.328,5.329c3.144,9.082-2.781,18.455-16.682,26.392-.013.564,0,1.14.019,1.75v.041c.082,3.034.175,6.473-3.114,9.762a16.351,16.351,0,0,1-5.71,3.732,2.082,2.082,0,0,1-1.786-.128ZM5.73,22.461a13.805,13.805,0,0,0-2.886,4.2,24.637,24.637,0,0,1,10.582,4.685c4.111,3.266,6.763,7.9,7.882,13.785A13.77,13.77,0,0,0,25.5,42.241c2.491-2.49,2.425-4.968,2.347-7.836-.024-.894-.05-1.817.015-2.737l.049-.7,1-.572C36.355,26.187,48.3,17.546,44.655,7.01A6.014,6.014,0,0,0,40.949,3.3a11.991,11.991,0,0,0-3.927-.675c-3.86,0-7.771,1.943-11.624,5.774A50.679,50.679,0,0,0,17.57,19.049l-.575,1L16.3,20.1c-.393.028-.823.041-1.309.041-.472,0-.943-.013-1.4-.024h-.028c-.475-.013-.965-.026-1.435-.026A8.022,8.022,0,0,0,5.73,22.461Zm-1.9,21.7a18.793,18.793,0,0,0,2.063.116c4.624,0,8.172-1.787,10.545-5.314a17.864,17.864,0,0,0-7.414-7.416C3.965,34.953,3.407,40.285,3.829,44.158Zm29.7-29.571H33.52a2.473,2.473,0,1,1,3.387-3.605q.057.054.111.111a2.473,2.473,0,0,1-3.492,3.495Z" transform="translate(0.017 0.018)" fill="#fff"/>
  </g>
</svg>
