<svg width="48" height="48" viewBox="0 0 48 48" fill="none" xmlns="http://www.w3.org/2000/svg">
<path fill-rule="evenodd" clip-rule="evenodd" d="M41.8246 0.839982C44.3187 1.71359 46.2795 3.6749 47.1525 6.16918C50.2973 15.2567 44.3727 24.6225 30.4696 32.5606C30.4574 33.1247 30.4725 33.7057 30.4883 34.3102L30.4894 34.352C30.5714 37.3858 30.6637 40.8252 27.3758 44.1138C25.7541 45.7434 23.8087 47.0149 21.6652 47.8462C21.0813 48.0753 20.4252 48.0284 19.8799 47.7186C19.3345 47.4087 18.9584 46.8691 18.8564 46.2502V46.2487C18.603 44.7098 18.2095 43.1973 17.6807 41.7301C15.4235 44.4518 11.7881 46.9279 6.02063 46.9285C4.83313 46.924 3.64774 46.8281 2.475 46.6414L1.5267 46.4934L1.37948 45.5456C0.154429 37.6632 3.05513 33.0185 6.3 30.33C4.82225 29.7934 3.29771 29.3956 1.74615 29.1418C1.13278 29.0405 0.598041 28.6674 0.291154 28.1267C-0.0208994 27.5796 -0.0688398 26.9207 0.160729 26.3342C0.991739 24.1903 2.26298 22.2444 3.89243 20.6221C7.1769 17.3368 10.6108 17.4279 13.6462 17.5084L13.6512 17.5085C14.2709 17.5258 14.8678 17.5411 15.4413 17.5291C23.38 3.62106 32.7433 -2.30162 41.8246 0.839982ZM9.03998 31.5615C4.08885 34.899 3.39743 40.0672 3.84555 44.175C7.95128 44.6278 13.1183 43.9328 16.4544 38.9781C14.7772 35.8223 12.1953 33.2396 9.03998 31.5615ZM28.9281 30.4174L27.9313 30.9895L27.8815 31.6853C27.817 32.6045 27.8419 33.5288 27.8665 34.4224L27.8665 34.4233C27.9434 37.2911 28.0098 39.7678 25.519 42.2585C24.3121 43.472 22.8902 44.4508 21.3259 45.145C18.7924 31.8347 8.99588 27.8533 2.86148 26.6748C3.55577 25.1097 4.53452 23.687 5.748 22.4791C8.23748 19.9882 10.7197 20.0545 13.5805 20.1328L13.6104 20.1336C14.4936 20.1568 15.4086 20.1808 16.3169 20.1167L17.0119 20.0676L17.5868 19.0668C21.7987 11.6224 30.4295 -0.322518 40.9662 3.32038C42.7009 3.92842 44.0647 5.29264 44.6723 7.02748C48.3175 17.5642 36.3725 26.205 28.9281 30.4174ZM33.4274 11.1083C34.3624 10.1126 35.9276 10.0634 36.9233 10.9984C36.9616 11.0343 36.9986 11.0712 37.0345 11.1093C37.9217 12.086 37.886 13.5871 36.9533 14.5205C36.0207 15.4538 34.5195 15.4907 33.5422 14.6043H33.5373C32.5416 13.6693 32.4924 12.1041 33.4274 11.1083Z" fill="white"/>
</svg>
