<svg width="38" height="38" viewBox="0 0 38 38" fill="none" xmlns="http://www.w3.org/2000/svg">
<path fill-rule="evenodd" clip-rule="evenodd" d="M13.0123 18.0485C9.13329 18.0444 5.98971 14.9011 5.98519 11.0221V7.03155C5.99645 3.1588 9.1391 0.0252686 13.0119 0.0252686C16.8846 0.0252686 20.0273 3.1588 20.0386 7.03155V11.0221C20.0341 14.9008 16.8909 18.044 13.0122 18.0485L13.0123 18.0485ZM29.9273 17.0074C29.9279 17.5821 30.3937 18.048 30.9684 18.0485L30.9684 18.0485C31.5432 18.0479 32.0089 17.5821 32.0096 17.0073V12.0633H36.9536C37.5287 12.0633 37.9948 11.5972 37.9948 11.0221C37.9948 10.4471 37.5287 9.98095 36.9536 9.98095H32.0096V5.0363C32.0096 4.46127 31.5435 3.99512 30.9684 3.99512C30.3934 3.99512 29.9273 4.46127 29.9273 5.0363V9.98095H24.9826C24.4076 9.98095 23.9414 10.4471 23.9414 11.0221C23.9414 11.5972 24.4076 12.0633 24.9826 12.0633H29.9273V17.0074ZM1.28285e-05 32.9688C0.00321883 35.7461 2.25383 37.9967 5.03111 38H20.9926C23.7699 37.9967 26.0206 35.7461 26.0237 32.9688V29.6827C26.0048 25.3901 23.3508 21.55 19.342 20.0149C18.9916 19.8694 18.5898 19.9258 18.293 20.1622C17.9962 20.3986 17.8513 20.7776 17.9148 21.1517C17.9827 21.5349 18.2564 21.8494 18.6266 21.9695C21.8187 23.1994 23.9291 26.2619 23.942 29.6827V32.9688C23.9399 34.5968 22.6206 35.9158 20.9926 35.9176H5.03111C3.4034 35.9156 2.08439 34.5965 2.08236 32.9688V29.4971C2.07151 26.1589 4.12039 23.1598 7.23403 21.9561C7.70959 21.784 7.99267 21.295 7.90514 20.7969C7.8176 20.2988 7.38477 19.9356 6.87902 19.9359C6.72978 19.9368 6.58236 19.9688 6.44612 20.0297C2.54674 21.5493 -0.0152415 25.3121 1.28285e-05 29.4971V32.9688ZM8.0676 7.03161C8.07094 4.30224 10.2829 2.09059 13.0123 2.08761L13.0122 2.08755C15.7414 2.09079 17.953 4.30239 17.9563 7.03155V11.0222C17.9468 13.7462 15.7359 15.9494 13.0119 15.9494C10.2879 15.9494 8.07704 13.7462 8.0676 11.0222V7.03161Z" fill="white"/>
</svg>
