<svg width="48" height="38" viewBox="0 0 48 38" fill="none" xmlns="http://www.w3.org/2000/svg">
<path fill-rule="evenodd" clip-rule="evenodd" d="M34.8579 0.747672L46.5469 10.4949C46.9729 10.9052 47.0414 11.5668 46.7088 12.0572L43.7981 15.6716C43.599 15.9078 43.318 16.058 43.0127 16.0914H42.7586L41.0953 19.0062L39.3859 23.3669C39.6636 23.8334 39.8222 24.3622 39.8475 24.9059C39.8951 25.8982 39.5251 26.8647 38.8288 27.5668L38.6231 27.7275L23.5848 37.055C23.5848 37.055 23.4229 37.1533 23.1849 37.2807C22.0295 37.912 20.6126 37.7881 19.582 36.9656C19.4634 36.8692 19.3499 36.7667 19.2419 36.6584L10.3482 27.9141C9.68305 27.2672 9.30769 26.3747 9.30863 25.4423C9.31188 24.686 9.55471 23.9506 10.0016 23.3436L7.85327 20.8951L7.72005 20.6961L5.38151 15.9749C5.18994 16.1229 4.95249 16.1972 4.7116 16.1847C4.41153 16.1553 4.13628 16.0037 3.9493 15.765L1.01549 12.1505C0.616912 11.6537 0.68905 10.9256 1.1772 10.5183L12.9817 0.608101C13.2114 0.409391 13.5128 0.316424 13.8133 0.3516C14.1374 0.379705 14.433 0.550061 14.6218 0.817567L17.5094 4.43245C17.9079 4.92931 17.8358 5.65743 17.3477 6.06479L16.9319 6.41427L17.4401 6.76374L23.3769 9.49242L23.7003 9.67895L24.07 9.91193L29.4066 7.34686L30.5843 6.18092H30.4689C29.9807 5.7736 29.9086 5.04548 30.3071 4.54865L33.2178 0.934205C33.4144 0.691225 33.6952 0.532837 34.0033 0.491172C34.3097 0.467421 34.6141 0.558765 34.8579 0.747672ZM30.7923 9.1891C30.7214 9.27452 30.6352 9.3457 30.5382 9.39893L24.4858 12.2205L20.1198 15.835C19.8635 16.0377 19.7109 16.3458 19.704 16.6744C19.6665 17.0989 19.8613 17.5102 20.2122 17.7471L20.5125 18.0503C20.9521 18.4508 21.6206 18.4508 22.0602 18.0503L27.2117 13.8994C27.565 13.5513 28.1289 13.5513 28.4822 13.8994L37.7227 21.5248L38.9932 17.9804L40.8179 14.7623L32.34 7.76659L30.7923 9.1891ZM3.53342 11.5676L13.559 3.19611L15.0142 5.01498L4.98871 13.3631L3.53342 11.5676ZM11.9652 26.1419L20.3144 34.459C20.7971 35.0938 21.6678 35.2757 22.3605 34.8865L23.4187 34.2727L12.7737 23.6701L11.9652 24.4862C11.7409 24.6968 11.6152 24.9932 11.619 25.3024C11.6143 25.6185 11.7397 25.9224 11.9652 26.1419ZM37.2836 25.5589L25.4329 32.9043L13.5821 21.3382C13.1329 20.881 12.4016 20.878 11.9487 21.3314L11.942 21.3382L11.5957 21.6876L9.67835 19.3557L7.36815 14.4358L15.2227 7.88316L16.1929 8.65266C16.2684 8.72042 16.3542 8.77553 16.447 8.81589L22.0836 11.1478L18.6416 14.086C17.884 14.7336 17.4312 15.6729 17.3938 16.6744C17.3412 17.6549 17.7021 18.6122 18.3872 19.3094L18.6875 19.6125C19.9263 20.8931 21.9261 21.0142 23.3077 19.8924L27.743 16.3479L37.1218 24.1831C37.3781 24.3858 37.5308 24.694 37.5377 25.0226C37.52 25.2265 37.4297 25.417 37.2836 25.5589ZM32.8254 5.01498L42.7355 13.1533L44.1908 11.5676L34.2806 3.21941L32.8254 5.01498Z" fill="white"/>
</svg>
