<svg width="38" height="38" viewBox="0 0 38 38" fill="none" xmlns="http://www.w3.org/2000/svg">
<path fill-rule="evenodd" clip-rule="evenodd" d="M31.4612 9.62043C31.4614 14.9298 27.1575 19.2341 21.8481 19.2344C16.5409 19.2287 12.24 14.928 12.2339 9.62079C12.2339 4.31139 16.538 0.00723947 21.8474 0.00714111C27.1568 0.00704275 31.461 4.31103 31.4612 9.62043ZM28.7896 6.74539C27.6266 3.93789 24.8869 2.10742 21.8481 2.10754C17.7007 2.11238 14.3398 5.47339 14.3351 9.62079C14.3351 12.6596 16.1657 15.3993 18.9733 16.5621C21.7808 17.725 25.0124 17.0822 27.1612 14.9333C29.3099 12.7845 29.9526 9.55288 28.7896 6.74539ZM37.9461 25.1329C37.8086 24.5679 37.4843 24.0658 37.0258 23.708C36.1561 23.0238 34.9695 22.9035 33.9802 23.3993L27.5029 25.6376C27.466 25.4995 27.4184 25.3645 27.3604 25.2339C26.9685 24.4842 26.2824 23.9314 25.4665 23.708C25.3753 23.6846 25.2816 23.6726 25.1874 23.6724C25.1517 23.6714 25.116 23.6734 25.0806 23.6784C24.2261 23.7948 23.3659 23.8641 22.5039 23.8861C21.5197 23.8875 20.5556 23.6074 19.7254 23.0787L19.6363 23.0372C19.1554 22.7937 18.5498 22.4969 17.7661 22.1466C16.8455 21.7428 15.8504 21.5365 14.8451 21.541C13.5385 21.5629 12.2506 21.8561 11.0632 22.4019V21.0364C11.06 20.4574 10.5914 19.9888 10.0124 19.9855H1.05342C0.473484 19.9866 0.00361256 20.4564 0.00256692 21.0364V36.9417C0.00206139 37.2205 0.112614 37.4881 0.309797 37.6853C0.506979 37.8825 0.774562 37.993 1.05342 37.9925H10.0243C10.6042 37.9915 11.0741 37.5216 11.0751 36.9417V36.0274H21.5243C23.1074 36.0267 24.6635 35.6177 26.0424 34.84L36.6399 27.9589C37.6469 27.4043 38.1761 26.2593 37.9461 25.1329ZM8.97341 35.8908H2.10427V22.0872H8.97341V35.8908ZM24.9915 33.0114L35.595 26.1363H35.5951C35.811 26.0347 35.9324 25.8014 35.8919 25.5663C35.8619 25.4753 35.801 25.3976 35.7197 25.3467C35.5921 25.2487 35.4353 25.1965 35.2744 25.1982C35.1483 25.1981 35.024 25.2287 34.9123 25.2873L26.7785 28.333C26.1017 28.8554 24.0891 30.0785 20.1884 30.0785C19.6097 30.0785 19.1406 29.6093 19.1406 29.0306C19.1406 28.4518 19.6097 27.9827 20.1884 27.9827C23.2757 27.9827 24.8846 27.0981 25.4308 26.7181C25.5075 26.5187 25.5158 26.2994 25.4546 26.0947C25.3612 25.9579 25.2288 25.8524 25.0746 25.7919C24.222 25.903 23.3636 25.9645 22.5039 25.976C21.1895 25.9892 19.8977 25.6333 18.7754 24.9489C18.2886 24.7055 17.7068 24.4145 16.935 24.0821C16.284 23.7957 15.58 23.65 14.8689 23.6546C13.5203 23.7061 12.206 24.0939 11.0454 24.7826L11.0751 33.9316H21.5124C22.7317 33.9271 23.9295 33.6103 24.9915 33.0114ZM23.6675 10.7293H20.0281C18.4248 10.7293 17.1249 9.42954 17.1249 7.82614C17.1249 6.22275 18.4248 4.92294 20.0281 4.92294H20.984V3.93739C20.984 3.36358 21.4492 2.89841 22.023 2.89841C22.5968 2.89841 23.062 3.36358 23.062 3.93739V4.92294H24.8134C25.3872 4.92294 25.8524 5.3881 25.8524 5.96192C25.8524 6.53573 25.3872 7.0009 24.8134 7.0009H20.0281C19.5724 7.0009 19.2029 7.37037 19.2029 7.82614C19.2029 8.28191 19.5724 8.65139 20.0281 8.65139H23.6675C25.2709 8.65139 26.5707 9.9512 26.5707 11.5546C26.5707 13.158 25.2709 14.4578 23.6675 14.4578H23.062V15.3068C23.062 15.8806 22.5968 16.3458 22.023 16.3458C21.4492 16.3458 20.984 15.8806 20.984 15.3068V14.4578H18.8823C18.3085 14.4578 17.8433 13.9926 17.8433 13.4188C17.8433 12.845 18.3085 12.3798 18.8823 12.3798H23.6675C24.1233 12.3798 24.4928 12.0104 24.4928 11.5546C24.4928 11.0988 24.1233 10.7293 23.6675 10.7293Z" fill="white"/>
</svg>
