<svg xmlns="http://www.w3.org/2000/svg" width="26.677" height="24.407" viewBox="0 0 26.677 24.407">
  <path id="Path_2253" data-name="Path 2253" d="M3879.351,3861.224c-1.459,4.889.208,5.821,1.667,7.916l-2.084-.466a5.3,5.3,0,0,0,3.752,5.588,2.574,2.574,0,0,1-1.667.465c.833,3.027,2.917,3.725,4.793,4.423-2.084,1.862-4.377,2.1-7.711,2.328,7.92,5.355,17.924,2.562,22.3-6.519,2.5-5.122,1.459-8.148,2.084-9.313.625-.931,1.459-1.164,2.293-2.793l-2.709.7a5.955,5.955,0,0,0,1.875-3.027c-1.459.466-2.71,1.863-3.96.7a5.4,5.4,0,0,0-4.376-1.4c-3.543.466-4.585,3.726-4.585,7.451-7.295.466-10.212-4.656-11.671-6.053" transform="translate(-3878.1 -3859.781)" fill="#707070" fill-rule="evenodd"/>
</svg>
