<svg width="32" height="25" viewBox="0 0 32 25" fill="none" xmlns="http://www.w3.org/2000/svg">
<path fill-rule="evenodd" clip-rule="evenodd" d="M13.1773 0.331968C19.0077 -1.13983 24.9205 2.42007 26.384 8.28325C29.4774 9.04315 31.657 11.8262 31.6666 15.0284C31.6782 18.8752 28.5866 22.0032 24.7613 22.0148H20.8034V20.0247H24.7613C27.2148 20.0124 29.2888 18.1936 29.6347 15.7509C30.0198 13.0307 28.1392 10.5114 25.4341 10.124C25.0129 10.0678 24.6744 9.74739 24.5931 9.32798C23.7695 5.12746 20.1046 2.10066 15.8471 2.10495C10.9289 2.10986 6.94581 6.12338 6.95076 11.0693C6.95076 11.6189 6.50778 12.0644 5.96128 12.0644C3.77541 12.0644 2.00339 13.8464 2.00339 16.0445C2.00339 18.2427 3.77541 20.0247 5.96128 20.0247H10.9087V22.0148H5.96128C3.04642 22.0264 0.554299 19.9083 0.0800319 17.016C-0.453481 13.7626 1.73666 10.6904 4.97181 10.1539C5.31268 5.44227 8.62105 1.48218 13.1773 0.331968ZM11.1956 16.3332L15.1535 12.353C15.5395 11.9672 16.1627 11.9672 16.5487 12.353L20.5066 16.3332L19.1114 17.7362L16.8455 15.4575V25H14.8666V15.4575L12.5908 17.7362L11.1956 16.3332Z" fill="#FF8080"/>
</svg>
