<svg xmlns="http://www.w3.org/2000/svg" width="48" height="47.962" viewBox="0 0 48 47.962">
  <g id="signup" transform="translate(0 -0.019)">
    <path id="Path" d="M24,0A24.069,24.069,0,0,0,0,22.637a1.32,1.32,0,0,0,1.313,1.4,1.3,1.3,0,0,0,1.3-1.224,21.416,21.416,0,0,1,42.761,0,1.3,1.3,0,0,0,1.3,1.224A1.32,1.32,0,0,0,48,22.637,24.069,24.069,0,0,0,24,0Z" transform="translate(0 23.943)" fill="#71c9d9"/>
    <path id="Path-2" data-name="Path" d="M0,7.8A1.311,1.311,0,0,0,1.311,9.112h8.981l-4.25,4.25A1.311,1.311,0,1,0,7.9,15.217l5.96-5.959a2.062,2.062,0,0,0,0-2.914L7.9.384A1.311,1.311,0,1,0,6.042,2.239l4.251,4.251H1.311A1.311,1.311,0,0,0,0,7.8Z" transform="translate(33.521 12.313)" fill="#71c9d9"/>
    <path id="Shape" d="M0,10.4a10.4,10.4,0,1,1,10.4,10.4A10.4,10.4,0,0,1,0,10.4Z" transform="translate(13.603 0.019)" fill="#71c9d9"/>
  </g>
</svg>
