<svg width="48" height="48" viewBox="0 0 48 48" fill="none" xmlns="http://www.w3.org/2000/svg">
<path d="M24 23.9429C11.2744 23.9581 0.759543 33.8767 0.00225573 46.5798C-0.0200872 46.9425 0.108091 47.2984 0.35658 47.5636C0.605068 47.8287 0.951883 47.9797 1.31528 47.981C2.00546 47.983 2.57742 47.4463 2.61938 46.7574C3.26836 35.4241 12.6481 26.5661 24 26.5661C35.3519 26.5661 44.7317 35.4241 45.3806 46.7574C45.4226 47.4463 45.9945 47.983 46.6847 47.981C47.0481 47.9797 47.3949 47.8287 47.6434 47.5636C47.8919 47.2984 48.0201 46.9425 47.9978 46.5798C47.2405 33.8767 36.7257 23.9581 24 23.9429Z" fill="#71C9D9"/>
<path d="M33.5212 20.1142C33.5212 20.462 33.6594 20.7956 33.9053 21.0416C34.1513 21.2875 34.4849 21.4257 34.8327 21.4257H43.8138L39.5633 25.6759C39.0512 26.188 39.0512 27.0183 39.5634 27.5304C40.0755 28.0425 40.9057 28.0425 41.4178 27.5303L47.3775 21.5713C48.1812 20.7661 48.1812 19.4623 47.3775 18.6571L41.4178 12.6975C40.9057 12.1853 40.0755 12.1853 39.5634 12.6974C39.0512 13.2095 39.0512 14.0398 39.5633 14.5519L43.8139 18.8025H34.8327C34.4848 18.8025 34.1512 18.9407 33.9052 19.1867C33.6593 19.4327 33.5212 19.7663 33.5212 20.1142Z" fill="#71C9D9"/>
<path fill-rule="evenodd" clip-rule="evenodd" d="M34.397 10.416C34.397 16.1581 29.7422 20.813 24 20.8131C18.2604 20.8068 13.6091 16.1555 13.6028 10.4159C13.6029 4.67375 18.2578 0.0188933 23.9999 0.0189209C29.7421 0.0189485 34.397 4.67385 34.397 10.416ZM31.1824 7.44119C29.9791 4.53614 27.1444 2.64196 24 2.6419C19.7084 2.64644 16.2304 6.12425 16.2257 10.4159C16.2256 13.5602 18.1196 16.3951 21.0246 17.5984C23.9296 18.8018 27.2735 18.1368 29.4969 15.9134C31.7204 13.6901 32.3856 10.3462 31.1824 7.44119Z" fill="#71C9D9"/>
</svg>
