<svg width="48" height="48" viewBox="0 0 48 48" fill="none" xmlns="http://www.w3.org/2000/svg">
<path fill-rule="evenodd" clip-rule="evenodd" d="M43.7113 0.626012L47.282 4.19991C48.1133 5.03414 48.113 6.38368 47.2813 7.21754L38.8921 15.6067V45.8542C38.8908 47.0324 37.9361 47.9872 36.7579 47.9887H2.13412C0.955951 47.9872 0.00128099 47.0324 0 45.8542V7.30371C0.00136363 6.1256 0.956009 5.17085 2.13412 5.16936H36.1593L40.6904 0.626687C41.0907 0.225587 41.6341 0.000126672 42.2007 0C42.7674 -0.000126565 43.3108 0.225091 43.7113 0.626012ZM42.2585 2.83746L42.2001 2.81324C42.1782 2.81312 42.1572 2.82188 42.1419 2.83754L40.4596 4.51686L43.389 7.44936L45.0714 5.76674V5.65064L42.2585 2.83746ZM36.3036 45.3222C36.3036 45.344 36.2948 45.3649 36.2794 45.3803C36.2639 45.3956 36.2429 45.4042 36.2211 45.4041H2.67112C2.64931 45.4042 2.62835 45.3956 2.61287 45.3803C2.59739 45.3649 2.58866 45.344 2.58862 45.3222V7.84566C2.58868 7.82386 2.59742 7.80298 2.6129 7.78763C2.62837 7.77228 2.64933 7.76372 2.67112 7.76384H33.5561L26.2507 15.064L8.49067 15.0668L8.37742 15.0618C7.68446 15.062 7.11414 15.607 7.08242 16.2993C7.05071 16.9915 7.56882 17.5864 8.25885 17.65C8.29139 17.6532 8.3241 17.6547 8.3568 17.6542L23.6614 17.6536L19.7999 21.5152L19.7646 21.6013L8.4951 21.6034L8.38185 21.5985C7.68643 21.5991 7.11524 22.1481 7.08707 22.8429C7.0589 23.5378 7.58376 24.1312 8.27685 24.1881C8.29995 24.1895 8.32312 24.1909 8.36228 24.1909L18.7146 24.1902L17.1307 28.1622L8.49638 28.1644L8.38103 28.1593C7.68828 28.1601 7.11849 28.7053 7.08724 29.3973C7.05599 30.0893 7.57432 30.6837 8.26418 30.7468C8.29657 30.7501 8.32912 30.7515 8.36168 30.7511L17.1557 30.7504L26.2428 28.2562L36.3036 18.1955V45.3222ZM21.9059 23.0791L20.2019 27.4186L24.8769 25.9657L41.5611 9.27719L38.6318 6.34791L21.9059 23.0791Z" fill="#71C9D9"/>
</svg>
