<svg xmlns="http://www.w3.org/2000/svg" width="24.908" height="20.711" viewBox="0 0 24.908 20.711">
  <path id="Path_2254" data-name="Path 2254" d="M3916.2,3874.643c.417,4.756.833,6.184,5,6.421,3.335.238,7.086.238,10.629.238,8.127-.238,9.587.713,8.962-14.03-.209-4.755-.833-6.183-5-6.42-3.543-.238-7.294-.238-10.837-.238-3.96,0-7.294-.476-8.337,2.853-.834,2.377-.626,8.323-.417,11.176m9.8-7.847c.833.238,5.626,3.092,6.252,4.043-.833.713-5.21,3.567-6.252,3.8Z" transform="translate(-3916.011 -3860.59)" fill="#707070" fill-rule="evenodd"/>
</svg>
